<mxfile host="app.diagrams.net" modified="2023-12-15T21:19:26.650Z" agent="Mozilla/5.0 (Windows NT 10.0; Win64; x64) AppleWebKit/537.36 (KHTML, like Gecko) Chrome/120.0.0.0 Safari/537.36" etag="Ub_9zG9D8Z8Qm8BBBgr9" version="22.1.9" type="google">
  <diagram id="R2lEEEUBdFMjLlhIrx00" name="Page-1">
    <mxGraphModel grid="1" page="1" gridSize="10" guides="1" tooltips="1" connect="1" arrows="1" fold="1" pageScale="1" pageWidth="850" pageHeight="1100" math="0" shadow="0" extFonts="Permanent Marker^https://fonts.googleapis.com/css?family=Permanent+Marker">
      <root>
        <mxCell id="0" />
        <mxCell id="1" parent="0" />
        <mxCell id="C-vyLk0tnHw3VtMMgP7b-2" value="ServiceProvider" style="shape=table;startSize=30;container=1;collapsible=1;childLayout=tableLayout;fixedRows=1;rowLines=0;fontStyle=1;align=center;resizeLast=1;fillColor=#dae8fc;strokeColor=#6c8ebf;" vertex="1" parent="1">
          <mxGeometry x="-730" y="-1910" width="180" height="80" as="geometry" />
        </mxCell>
        <mxCell id="C-vyLk0tnHw3VtMMgP7b-3" value="" style="shape=partialRectangle;collapsible=0;dropTarget=0;pointerEvents=0;fillColor=none;points=[[0,0.5],[1,0.5]];portConstraint=eastwest;top=0;left=0;right=0;bottom=1;" vertex="1" parent="C-vyLk0tnHw3VtMMgP7b-2">
          <mxGeometry y="30" width="180" height="30" as="geometry" />
        </mxCell>
        <mxCell id="C-vyLk0tnHw3VtMMgP7b-4" value="PK" style="shape=partialRectangle;overflow=hidden;connectable=0;fillColor=none;top=0;left=0;bottom=0;right=0;fontStyle=1;" vertex="1" parent="C-vyLk0tnHw3VtMMgP7b-3">
          <mxGeometry width="30" height="30" as="geometry">
            <mxRectangle width="30" height="30" as="alternateBounds" />
          </mxGeometry>
        </mxCell>
        <mxCell id="C-vyLk0tnHw3VtMMgP7b-5" value="provider_id int" style="shape=partialRectangle;overflow=hidden;connectable=0;fillColor=none;top=0;left=0;bottom=0;right=0;align=left;spacingLeft=6;fontStyle=5;" vertex="1" parent="C-vyLk0tnHw3VtMMgP7b-3">
          <mxGeometry x="30" width="150" height="30" as="geometry">
            <mxRectangle width="150" height="30" as="alternateBounds" />
          </mxGeometry>
        </mxCell>
        <mxCell id="C-vyLk0tnHw3VtMMgP7b-6" value="" style="shape=partialRectangle;collapsible=0;dropTarget=0;pointerEvents=0;fillColor=none;points=[[0,0.5],[1,0.5]];portConstraint=eastwest;top=0;left=0;right=0;bottom=0;" vertex="1" parent="C-vyLk0tnHw3VtMMgP7b-2">
          <mxGeometry y="60" width="180" height="20" as="geometry" />
        </mxCell>
        <mxCell id="C-vyLk0tnHw3VtMMgP7b-7" value="" style="shape=partialRectangle;overflow=hidden;connectable=0;fillColor=none;top=0;left=0;bottom=0;right=0;" vertex="1" parent="C-vyLk0tnHw3VtMMgP7b-6">
          <mxGeometry width="30" height="20" as="geometry">
            <mxRectangle width="30" height="20" as="alternateBounds" />
          </mxGeometry>
        </mxCell>
        <mxCell id="C-vyLk0tnHw3VtMMgP7b-8" value="rating int" style="shape=partialRectangle;overflow=hidden;connectable=0;fillColor=none;top=0;left=0;bottom=0;right=0;align=left;spacingLeft=6;" vertex="1" parent="C-vyLk0tnHw3VtMMgP7b-6">
          <mxGeometry x="30" width="150" height="20" as="geometry">
            <mxRectangle width="150" height="20" as="alternateBounds" />
          </mxGeometry>
        </mxCell>
        <mxCell id="C-vyLk0tnHw3VtMMgP7b-13" value="Service" style="shape=table;startSize=30;container=1;collapsible=1;childLayout=tableLayout;fixedRows=1;rowLines=0;fontStyle=1;align=center;resizeLast=1;fillColor=#dae8fc;strokeColor=#6c8ebf;" vertex="1" parent="1">
          <mxGeometry x="-1040" y="-1910" width="210" height="180" as="geometry" />
        </mxCell>
        <mxCell id="C-vyLk0tnHw3VtMMgP7b-14" value="" style="shape=partialRectangle;collapsible=0;dropTarget=0;pointerEvents=0;fillColor=none;points=[[0,0.5],[1,0.5]];portConstraint=eastwest;top=0;left=0;right=0;bottom=1;" vertex="1" parent="C-vyLk0tnHw3VtMMgP7b-13">
          <mxGeometry y="30" width="210" height="30" as="geometry" />
        </mxCell>
        <mxCell id="C-vyLk0tnHw3VtMMgP7b-15" value="PK" style="shape=partialRectangle;overflow=hidden;connectable=0;fillColor=none;top=0;left=0;bottom=0;right=0;fontStyle=1;" vertex="1" parent="C-vyLk0tnHw3VtMMgP7b-14">
          <mxGeometry width="30" height="30" as="geometry">
            <mxRectangle width="30" height="30" as="alternateBounds" />
          </mxGeometry>
        </mxCell>
        <mxCell id="C-vyLk0tnHw3VtMMgP7b-16" value="service_id int" style="shape=partialRectangle;overflow=hidden;connectable=0;fillColor=none;top=0;left=0;bottom=0;right=0;align=left;spacingLeft=6;fontStyle=5;" vertex="1" parent="C-vyLk0tnHw3VtMMgP7b-14">
          <mxGeometry x="30" width="180" height="30" as="geometry">
            <mxRectangle width="180" height="30" as="alternateBounds" />
          </mxGeometry>
        </mxCell>
        <mxCell id="C-vyLk0tnHw3VtMMgP7b-20" value="" style="shape=partialRectangle;collapsible=0;dropTarget=0;pointerEvents=0;fillColor=none;points=[[0,0.5],[1,0.5]];portConstraint=eastwest;top=0;left=0;right=0;bottom=0;" vertex="1" parent="C-vyLk0tnHw3VtMMgP7b-13">
          <mxGeometry y="60" width="210" height="20" as="geometry" />
        </mxCell>
        <mxCell id="C-vyLk0tnHw3VtMMgP7b-21" value="" style="shape=partialRectangle;overflow=hidden;connectable=0;fillColor=none;top=0;left=0;bottom=0;right=0;" vertex="1" parent="C-vyLk0tnHw3VtMMgP7b-20">
          <mxGeometry width="30" height="20" as="geometry">
            <mxRectangle width="30" height="20" as="alternateBounds" />
          </mxGeometry>
        </mxCell>
        <mxCell id="C-vyLk0tnHw3VtMMgP7b-22" value="service_name varchar(50)" style="shape=partialRectangle;overflow=hidden;connectable=0;fillColor=none;top=0;left=0;bottom=0;right=0;align=left;spacingLeft=6;" vertex="1" parent="C-vyLk0tnHw3VtMMgP7b-20">
          <mxGeometry x="30" width="180" height="20" as="geometry">
            <mxRectangle width="180" height="20" as="alternateBounds" />
          </mxGeometry>
        </mxCell>
        <mxCell id="X0QKfnbGEKnTVk9c6X8E-27" value="" style="shape=partialRectangle;collapsible=0;dropTarget=0;pointerEvents=0;fillColor=none;points=[[0,0.5],[1,0.5]];portConstraint=eastwest;top=0;left=0;right=0;bottom=0;" vertex="1" parent="C-vyLk0tnHw3VtMMgP7b-13">
          <mxGeometry y="80" width="210" height="20" as="geometry" />
        </mxCell>
        <mxCell id="X0QKfnbGEKnTVk9c6X8E-28" value="" style="shape=partialRectangle;overflow=hidden;connectable=0;fillColor=none;top=0;left=0;bottom=0;right=0;" vertex="1" parent="X0QKfnbGEKnTVk9c6X8E-27">
          <mxGeometry width="30" height="20" as="geometry">
            <mxRectangle width="30" height="20" as="alternateBounds" />
          </mxGeometry>
        </mxCell>
        <mxCell id="X0QKfnbGEKnTVk9c6X8E-29" value="type varchar(50)" style="shape=partialRectangle;overflow=hidden;connectable=0;fillColor=none;top=0;left=0;bottom=0;right=0;align=left;spacingLeft=6;" vertex="1" parent="X0QKfnbGEKnTVk9c6X8E-27">
          <mxGeometry x="30" width="180" height="20" as="geometry">
            <mxRectangle width="180" height="20" as="alternateBounds" />
          </mxGeometry>
        </mxCell>
        <mxCell id="X0QKfnbGEKnTVk9c6X8E-30" value="" style="shape=partialRectangle;collapsible=0;dropTarget=0;pointerEvents=0;fillColor=none;points=[[0,0.5],[1,0.5]];portConstraint=eastwest;top=0;left=0;right=0;bottom=0;" vertex="1" parent="C-vyLk0tnHw3VtMMgP7b-13">
          <mxGeometry y="100" width="210" height="20" as="geometry" />
        </mxCell>
        <mxCell id="X0QKfnbGEKnTVk9c6X8E-31" value="" style="shape=partialRectangle;overflow=hidden;connectable=0;fillColor=none;top=0;left=0;bottom=0;right=0;" vertex="1" parent="X0QKfnbGEKnTVk9c6X8E-30">
          <mxGeometry width="30" height="20" as="geometry">
            <mxRectangle width="30" height="20" as="alternateBounds" />
          </mxGeometry>
        </mxCell>
        <mxCell id="X0QKfnbGEKnTVk9c6X8E-32" value="available_times varchar(255)" style="shape=partialRectangle;overflow=hidden;connectable=0;fillColor=none;top=0;left=0;bottom=0;right=0;align=left;spacingLeft=6;" vertex="1" parent="X0QKfnbGEKnTVk9c6X8E-30">
          <mxGeometry x="30" width="180" height="20" as="geometry">
            <mxRectangle width="180" height="20" as="alternateBounds" />
          </mxGeometry>
        </mxCell>
        <mxCell id="kZIPnpXtTYGKchgnMpPG-46" value="" style="shape=partialRectangle;collapsible=0;dropTarget=0;pointerEvents=0;fillColor=none;points=[[0,0.5],[1,0.5]];portConstraint=eastwest;top=0;left=0;right=0;bottom=0;" vertex="1" parent="C-vyLk0tnHw3VtMMgP7b-13">
          <mxGeometry y="120" width="210" height="20" as="geometry" />
        </mxCell>
        <mxCell id="kZIPnpXtTYGKchgnMpPG-47" value="" style="shape=partialRectangle;overflow=hidden;connectable=0;fillColor=none;top=0;left=0;bottom=0;right=0;" vertex="1" parent="kZIPnpXtTYGKchgnMpPG-46">
          <mxGeometry width="30" height="20" as="geometry">
            <mxRectangle width="30" height="20" as="alternateBounds" />
          </mxGeometry>
        </mxCell>
        <mxCell id="kZIPnpXtTYGKchgnMpPG-48" value="description varchar(200)" style="shape=partialRectangle;overflow=hidden;connectable=0;fillColor=none;top=0;left=0;bottom=0;right=0;align=left;spacingLeft=6;" vertex="1" parent="kZIPnpXtTYGKchgnMpPG-46">
          <mxGeometry x="30" width="180" height="20" as="geometry">
            <mxRectangle width="180" height="20" as="alternateBounds" />
          </mxGeometry>
        </mxCell>
        <mxCell id="kZIPnpXtTYGKchgnMpPG-49" value="" style="shape=partialRectangle;collapsible=0;dropTarget=0;pointerEvents=0;fillColor=none;points=[[0,0.5],[1,0.5]];portConstraint=eastwest;top=0;left=0;right=0;bottom=0;" vertex="1" parent="C-vyLk0tnHw3VtMMgP7b-13">
          <mxGeometry y="140" width="210" height="20" as="geometry" />
        </mxCell>
        <mxCell id="kZIPnpXtTYGKchgnMpPG-50" value="" style="shape=partialRectangle;overflow=hidden;connectable=0;fillColor=none;top=0;left=0;bottom=0;right=0;" vertex="1" parent="kZIPnpXtTYGKchgnMpPG-49">
          <mxGeometry width="30" height="20" as="geometry">
            <mxRectangle width="30" height="20" as="alternateBounds" />
          </mxGeometry>
        </mxCell>
        <mxCell id="kZIPnpXtTYGKchgnMpPG-51" value="price int" style="shape=partialRectangle;overflow=hidden;connectable=0;fillColor=none;top=0;left=0;bottom=0;right=0;align=left;spacingLeft=6;" vertex="1" parent="kZIPnpXtTYGKchgnMpPG-49">
          <mxGeometry x="30" width="180" height="20" as="geometry">
            <mxRectangle width="180" height="20" as="alternateBounds" />
          </mxGeometry>
        </mxCell>
        <mxCell id="X0QKfnbGEKnTVk9c6X8E-128" value="" style="shape=partialRectangle;collapsible=0;dropTarget=0;pointerEvents=0;fillColor=none;points=[[0,0.5],[1,0.5]];portConstraint=eastwest;top=0;left=0;right=0;bottom=0;" vertex="1" parent="C-vyLk0tnHw3VtMMgP7b-13">
          <mxGeometry y="160" width="210" height="20" as="geometry" />
        </mxCell>
        <mxCell id="X0QKfnbGEKnTVk9c6X8E-129" value="FK" style="shape=partialRectangle;overflow=hidden;connectable=0;fillColor=none;top=0;left=0;bottom=0;right=0;" vertex="1" parent="X0QKfnbGEKnTVk9c6X8E-128">
          <mxGeometry width="30" height="20" as="geometry">
            <mxRectangle width="30" height="20" as="alternateBounds" />
          </mxGeometry>
        </mxCell>
        <mxCell id="X0QKfnbGEKnTVk9c6X8E-130" value="provider_id int" style="shape=partialRectangle;overflow=hidden;connectable=0;fillColor=none;top=0;left=0;bottom=0;right=0;align=left;spacingLeft=6;" vertex="1" parent="X0QKfnbGEKnTVk9c6X8E-128">
          <mxGeometry x="30" width="180" height="20" as="geometry">
            <mxRectangle width="180" height="20" as="alternateBounds" />
          </mxGeometry>
        </mxCell>
        <mxCell id="C-vyLk0tnHw3VtMMgP7b-23" value="ServiceRequester" style="shape=table;startSize=30;container=1;collapsible=1;childLayout=tableLayout;fixedRows=1;rowLines=0;fontStyle=1;align=center;resizeLast=1;fillColor=#dae8fc;strokeColor=#6c8ebf;" vertex="1" parent="1">
          <mxGeometry x="-1325" y="-1910" width="180" height="80" as="geometry" />
        </mxCell>
        <mxCell id="C-vyLk0tnHw3VtMMgP7b-24" value="" style="shape=partialRectangle;collapsible=0;dropTarget=0;pointerEvents=0;fillColor=none;points=[[0,0.5],[1,0.5]];portConstraint=eastwest;top=0;left=0;right=0;bottom=1;" vertex="1" parent="C-vyLk0tnHw3VtMMgP7b-23">
          <mxGeometry y="30" width="180" height="30" as="geometry" />
        </mxCell>
        <mxCell id="C-vyLk0tnHw3VtMMgP7b-25" value="PK" style="shape=partialRectangle;overflow=hidden;connectable=0;fillColor=none;top=0;left=0;bottom=0;right=0;fontStyle=1;" vertex="1" parent="C-vyLk0tnHw3VtMMgP7b-24">
          <mxGeometry width="30" height="30" as="geometry">
            <mxRectangle width="30" height="30" as="alternateBounds" />
          </mxGeometry>
        </mxCell>
        <mxCell id="C-vyLk0tnHw3VtMMgP7b-26" value="requester_id int" style="shape=partialRectangle;overflow=hidden;connectable=0;fillColor=none;top=0;left=0;bottom=0;right=0;align=left;spacingLeft=6;fontStyle=5;" vertex="1" parent="C-vyLk0tnHw3VtMMgP7b-24">
          <mxGeometry x="30" width="150" height="30" as="geometry">
            <mxRectangle width="150" height="30" as="alternateBounds" />
          </mxGeometry>
        </mxCell>
        <mxCell id="C-vyLk0tnHw3VtMMgP7b-27" value="" style="shape=partialRectangle;collapsible=0;dropTarget=0;pointerEvents=0;fillColor=none;points=[[0,0.5],[1,0.5]];portConstraint=eastwest;top=0;left=0;right=0;bottom=0;" vertex="1" parent="C-vyLk0tnHw3VtMMgP7b-23">
          <mxGeometry y="60" width="180" height="20" as="geometry" />
        </mxCell>
        <mxCell id="C-vyLk0tnHw3VtMMgP7b-28" value="" style="shape=partialRectangle;overflow=hidden;connectable=0;fillColor=none;top=0;left=0;bottom=0;right=0;" vertex="1" parent="C-vyLk0tnHw3VtMMgP7b-27">
          <mxGeometry width="30" height="20" as="geometry">
            <mxRectangle width="30" height="20" as="alternateBounds" />
          </mxGeometry>
        </mxCell>
        <mxCell id="C-vyLk0tnHw3VtMMgP7b-29" value="premium_member int" style="shape=partialRectangle;overflow=hidden;connectable=0;fillColor=none;top=0;left=0;bottom=0;right=0;align=left;spacingLeft=6;" vertex="1" parent="C-vyLk0tnHw3VtMMgP7b-27">
          <mxGeometry x="30" width="150" height="20" as="geometry">
            <mxRectangle width="150" height="20" as="alternateBounds" />
          </mxGeometry>
        </mxCell>
        <mxCell id="X0QKfnbGEKnTVk9c6X8E-33" value="Appointment" style="shape=table;startSize=30;container=1;collapsible=1;childLayout=tableLayout;fixedRows=1;rowLines=0;fontStyle=1;align=center;resizeLast=1;fillColor=#dae8fc;strokeColor=#6c8ebf;" vertex="1" parent="1">
          <mxGeometry x="-1065" y="-1440" width="180" height="160" as="geometry" />
        </mxCell>
        <mxCell id="X0QKfnbGEKnTVk9c6X8E-34" value="" style="shape=partialRectangle;collapsible=0;dropTarget=0;pointerEvents=0;fillColor=none;points=[[0,0.5],[1,0.5]];portConstraint=eastwest;top=0;left=0;right=0;bottom=1;" vertex="1" parent="X0QKfnbGEKnTVk9c6X8E-33">
          <mxGeometry y="30" width="180" height="30" as="geometry" />
        </mxCell>
        <mxCell id="X0QKfnbGEKnTVk9c6X8E-35" value="PK" style="shape=partialRectangle;overflow=hidden;connectable=0;fillColor=none;top=0;left=0;bottom=0;right=0;fontStyle=1;" vertex="1" parent="X0QKfnbGEKnTVk9c6X8E-34">
          <mxGeometry width="30" height="30" as="geometry">
            <mxRectangle width="30" height="30" as="alternateBounds" />
          </mxGeometry>
        </mxCell>
        <mxCell id="X0QKfnbGEKnTVk9c6X8E-36" value="appointment_id int" style="shape=partialRectangle;overflow=hidden;connectable=0;fillColor=none;top=0;left=0;bottom=0;right=0;align=left;spacingLeft=6;fontStyle=5;" vertex="1" parent="X0QKfnbGEKnTVk9c6X8E-34">
          <mxGeometry x="30" width="150" height="30" as="geometry">
            <mxRectangle width="150" height="30" as="alternateBounds" />
          </mxGeometry>
        </mxCell>
        <mxCell id="X0QKfnbGEKnTVk9c6X8E-37" value="" style="shape=partialRectangle;collapsible=0;dropTarget=0;pointerEvents=0;fillColor=none;points=[[0,0.5],[1,0.5]];portConstraint=eastwest;top=0;left=0;right=0;bottom=0;" vertex="1" parent="X0QKfnbGEKnTVk9c6X8E-33">
          <mxGeometry y="60" width="180" height="20" as="geometry" />
        </mxCell>
        <mxCell id="X0QKfnbGEKnTVk9c6X8E-38" value="FK" style="shape=partialRectangle;overflow=hidden;connectable=0;fillColor=none;top=0;left=0;bottom=0;right=0;" vertex="1" parent="X0QKfnbGEKnTVk9c6X8E-37">
          <mxGeometry width="30" height="20" as="geometry">
            <mxRectangle width="30" height="20" as="alternateBounds" />
          </mxGeometry>
        </mxCell>
        <mxCell id="X0QKfnbGEKnTVk9c6X8E-39" value="requester_id int" style="shape=partialRectangle;overflow=hidden;connectable=0;fillColor=none;top=0;left=0;bottom=0;right=0;align=left;spacingLeft=6;" vertex="1" parent="X0QKfnbGEKnTVk9c6X8E-37">
          <mxGeometry x="30" width="150" height="20" as="geometry">
            <mxRectangle width="150" height="20" as="alternateBounds" />
          </mxGeometry>
        </mxCell>
        <mxCell id="X0QKfnbGEKnTVk9c6X8E-40" value="" style="shape=partialRectangle;collapsible=0;dropTarget=0;pointerEvents=0;fillColor=none;points=[[0,0.5],[1,0.5]];portConstraint=eastwest;top=0;left=0;right=0;bottom=0;" vertex="1" parent="X0QKfnbGEKnTVk9c6X8E-33">
          <mxGeometry y="80" width="180" height="20" as="geometry" />
        </mxCell>
        <mxCell id="X0QKfnbGEKnTVk9c6X8E-41" value="FK" style="shape=partialRectangle;overflow=hidden;connectable=0;fillColor=none;top=0;left=0;bottom=0;right=0;" vertex="1" parent="X0QKfnbGEKnTVk9c6X8E-40">
          <mxGeometry width="30" height="20" as="geometry">
            <mxRectangle width="30" height="20" as="alternateBounds" />
          </mxGeometry>
        </mxCell>
        <mxCell id="X0QKfnbGEKnTVk9c6X8E-42" value="provider_id int" style="shape=partialRectangle;overflow=hidden;connectable=0;fillColor=none;top=0;left=0;bottom=0;right=0;align=left;spacingLeft=6;" vertex="1" parent="X0QKfnbGEKnTVk9c6X8E-40">
          <mxGeometry x="30" width="150" height="20" as="geometry">
            <mxRectangle width="150" height="20" as="alternateBounds" />
          </mxGeometry>
        </mxCell>
        <mxCell id="X0QKfnbGEKnTVk9c6X8E-43" value="" style="shape=partialRectangle;collapsible=0;dropTarget=0;pointerEvents=0;fillColor=none;points=[[0,0.5],[1,0.5]];portConstraint=eastwest;top=0;left=0;right=0;bottom=0;" vertex="1" parent="X0QKfnbGEKnTVk9c6X8E-33">
          <mxGeometry y="100" width="180" height="20" as="geometry" />
        </mxCell>
        <mxCell id="X0QKfnbGEKnTVk9c6X8E-44" value="FK" style="shape=partialRectangle;overflow=hidden;connectable=0;fillColor=none;top=0;left=0;bottom=0;right=0;" vertex="1" parent="X0QKfnbGEKnTVk9c6X8E-43">
          <mxGeometry width="30" height="20" as="geometry">
            <mxRectangle width="30" height="20" as="alternateBounds" />
          </mxGeometry>
        </mxCell>
        <mxCell id="X0QKfnbGEKnTVk9c6X8E-45" value="service_id int" style="shape=partialRectangle;overflow=hidden;connectable=0;fillColor=none;top=0;left=0;bottom=0;right=0;align=left;spacingLeft=6;" vertex="1" parent="X0QKfnbGEKnTVk9c6X8E-43">
          <mxGeometry x="30" width="150" height="20" as="geometry">
            <mxRectangle width="150" height="20" as="alternateBounds" />
          </mxGeometry>
        </mxCell>
        <mxCell id="X0QKfnbGEKnTVk9c6X8E-46" value="" style="shape=partialRectangle;collapsible=0;dropTarget=0;pointerEvents=0;fillColor=none;points=[[0,0.5],[1,0.5]];portConstraint=eastwest;top=0;left=0;right=0;bottom=0;" vertex="1" parent="X0QKfnbGEKnTVk9c6X8E-33">
          <mxGeometry y="120" width="180" height="20" as="geometry" />
        </mxCell>
        <mxCell id="X0QKfnbGEKnTVk9c6X8E-47" value="" style="shape=partialRectangle;overflow=hidden;connectable=0;fillColor=none;top=0;left=0;bottom=0;right=0;" vertex="1" parent="X0QKfnbGEKnTVk9c6X8E-46">
          <mxGeometry width="30" height="20" as="geometry">
            <mxRectangle width="30" height="20" as="alternateBounds" />
          </mxGeometry>
        </mxCell>
        <mxCell id="X0QKfnbGEKnTVk9c6X8E-48" value="reservation_date date" style="shape=partialRectangle;overflow=hidden;connectable=0;fillColor=none;top=0;left=0;bottom=0;right=0;align=left;spacingLeft=6;" vertex="1" parent="X0QKfnbGEKnTVk9c6X8E-46">
          <mxGeometry x="30" width="150" height="20" as="geometry">
            <mxRectangle width="150" height="20" as="alternateBounds" />
          </mxGeometry>
        </mxCell>
        <mxCell id="X0QKfnbGEKnTVk9c6X8E-49" value="" style="shape=partialRectangle;collapsible=0;dropTarget=0;pointerEvents=0;fillColor=none;points=[[0,0.5],[1,0.5]];portConstraint=eastwest;top=0;left=0;right=0;bottom=0;" vertex="1" parent="X0QKfnbGEKnTVk9c6X8E-33">
          <mxGeometry y="140" width="180" height="20" as="geometry" />
        </mxCell>
        <mxCell id="X0QKfnbGEKnTVk9c6X8E-50" value="" style="shape=partialRectangle;overflow=hidden;connectable=0;fillColor=none;top=0;left=0;bottom=0;right=0;" vertex="1" parent="X0QKfnbGEKnTVk9c6X8E-49">
          <mxGeometry width="30" height="20" as="geometry">
            <mxRectangle width="30" height="20" as="alternateBounds" />
          </mxGeometry>
        </mxCell>
        <mxCell id="X0QKfnbGEKnTVk9c6X8E-51" value="status varchar(50)" style="shape=partialRectangle;overflow=hidden;connectable=0;fillColor=none;top=0;left=0;bottom=0;right=0;align=left;spacingLeft=6;" vertex="1" parent="X0QKfnbGEKnTVk9c6X8E-49">
          <mxGeometry x="30" width="150" height="20" as="geometry">
            <mxRectangle width="150" height="20" as="alternateBounds" />
          </mxGeometry>
        </mxCell>
        <mxCell id="X0QKfnbGEKnTVk9c6X8E-52" value="Review" style="shape=table;startSize=30;container=1;collapsible=1;childLayout=tableLayout;fixedRows=1;rowLines=0;fontStyle=1;align=center;resizeLast=1;fillColor=#dae8fc;strokeColor=#6c8ebf;" vertex="1" parent="1">
          <mxGeometry x="-1325" y="-1760" width="170" height="140" as="geometry" />
        </mxCell>
        <mxCell id="X0QKfnbGEKnTVk9c6X8E-53" value="" style="shape=partialRectangle;collapsible=0;dropTarget=0;pointerEvents=0;fillColor=none;points=[[0,0.5],[1,0.5]];portConstraint=eastwest;top=0;left=0;right=0;bottom=1;" vertex="1" parent="X0QKfnbGEKnTVk9c6X8E-52">
          <mxGeometry y="30" width="170" height="30" as="geometry" />
        </mxCell>
        <mxCell id="X0QKfnbGEKnTVk9c6X8E-54" value="PK" style="shape=partialRectangle;overflow=hidden;connectable=0;fillColor=none;top=0;left=0;bottom=0;right=0;fontStyle=1;" vertex="1" parent="X0QKfnbGEKnTVk9c6X8E-53">
          <mxGeometry width="30" height="30" as="geometry">
            <mxRectangle width="30" height="30" as="alternateBounds" />
          </mxGeometry>
        </mxCell>
        <mxCell id="X0QKfnbGEKnTVk9c6X8E-55" value="review_id int" style="shape=partialRectangle;overflow=hidden;connectable=0;fillColor=none;top=0;left=0;bottom=0;right=0;align=left;spacingLeft=6;fontStyle=5;" vertex="1" parent="X0QKfnbGEKnTVk9c6X8E-53">
          <mxGeometry x="30" width="140" height="30" as="geometry">
            <mxRectangle width="140" height="30" as="alternateBounds" />
          </mxGeometry>
        </mxCell>
        <mxCell id="X0QKfnbGEKnTVk9c6X8E-56" value="" style="shape=partialRectangle;collapsible=0;dropTarget=0;pointerEvents=0;fillColor=none;points=[[0,0.5],[1,0.5]];portConstraint=eastwest;top=0;left=0;right=0;bottom=0;" vertex="1" parent="X0QKfnbGEKnTVk9c6X8E-52">
          <mxGeometry y="60" width="170" height="20" as="geometry" />
        </mxCell>
        <mxCell id="X0QKfnbGEKnTVk9c6X8E-57" value="FK" style="shape=partialRectangle;overflow=hidden;connectable=0;fillColor=none;top=0;left=0;bottom=0;right=0;" vertex="1" parent="X0QKfnbGEKnTVk9c6X8E-56">
          <mxGeometry width="30" height="20" as="geometry">
            <mxRectangle width="30" height="20" as="alternateBounds" />
          </mxGeometry>
        </mxCell>
        <mxCell id="X0QKfnbGEKnTVk9c6X8E-58" value="requester_id int" style="shape=partialRectangle;overflow=hidden;connectable=0;fillColor=none;top=0;left=0;bottom=0;right=0;align=left;spacingLeft=6;" vertex="1" parent="X0QKfnbGEKnTVk9c6X8E-56">
          <mxGeometry x="30" width="140" height="20" as="geometry">
            <mxRectangle width="140" height="20" as="alternateBounds" />
          </mxGeometry>
        </mxCell>
        <mxCell id="X0QKfnbGEKnTVk9c6X8E-59" value="" style="shape=partialRectangle;collapsible=0;dropTarget=0;pointerEvents=0;fillColor=none;points=[[0,0.5],[1,0.5]];portConstraint=eastwest;top=0;left=0;right=0;bottom=0;" vertex="1" parent="X0QKfnbGEKnTVk9c6X8E-52">
          <mxGeometry y="80" width="170" height="20" as="geometry" />
        </mxCell>
        <mxCell id="X0QKfnbGEKnTVk9c6X8E-60" value="FK" style="shape=partialRectangle;overflow=hidden;connectable=0;fillColor=none;top=0;left=0;bottom=0;right=0;" vertex="1" parent="X0QKfnbGEKnTVk9c6X8E-59">
          <mxGeometry width="30" height="20" as="geometry">
            <mxRectangle width="30" height="20" as="alternateBounds" />
          </mxGeometry>
        </mxCell>
        <mxCell id="X0QKfnbGEKnTVk9c6X8E-61" value="service_id int" style="shape=partialRectangle;overflow=hidden;connectable=0;fillColor=none;top=0;left=0;bottom=0;right=0;align=left;spacingLeft=6;" vertex="1" parent="X0QKfnbGEKnTVk9c6X8E-59">
          <mxGeometry x="30" width="140" height="20" as="geometry">
            <mxRectangle width="140" height="20" as="alternateBounds" />
          </mxGeometry>
        </mxCell>
        <mxCell id="X0QKfnbGEKnTVk9c6X8E-62" value="" style="shape=partialRectangle;collapsible=0;dropTarget=0;pointerEvents=0;fillColor=none;points=[[0,0.5],[1,0.5]];portConstraint=eastwest;top=0;left=0;right=0;bottom=0;" vertex="1" parent="X0QKfnbGEKnTVk9c6X8E-52">
          <mxGeometry y="100" width="170" height="20" as="geometry" />
        </mxCell>
        <mxCell id="X0QKfnbGEKnTVk9c6X8E-63" value="" style="shape=partialRectangle;overflow=hidden;connectable=0;fillColor=none;top=0;left=0;bottom=0;right=0;" vertex="1" parent="X0QKfnbGEKnTVk9c6X8E-62">
          <mxGeometry width="30" height="20" as="geometry">
            <mxRectangle width="30" height="20" as="alternateBounds" />
          </mxGeometry>
        </mxCell>
        <mxCell id="X0QKfnbGEKnTVk9c6X8E-64" value="rating int" style="shape=partialRectangle;overflow=hidden;connectable=0;fillColor=none;top=0;left=0;bottom=0;right=0;align=left;spacingLeft=6;" vertex="1" parent="X0QKfnbGEKnTVk9c6X8E-62">
          <mxGeometry x="30" width="140" height="20" as="geometry">
            <mxRectangle width="140" height="20" as="alternateBounds" />
          </mxGeometry>
        </mxCell>
        <mxCell id="X0QKfnbGEKnTVk9c6X8E-65" value="" style="shape=partialRectangle;collapsible=0;dropTarget=0;pointerEvents=0;fillColor=none;points=[[0,0.5],[1,0.5]];portConstraint=eastwest;top=0;left=0;right=0;bottom=0;" vertex="1" parent="X0QKfnbGEKnTVk9c6X8E-52">
          <mxGeometry y="120" width="170" height="20" as="geometry" />
        </mxCell>
        <mxCell id="X0QKfnbGEKnTVk9c6X8E-66" value="" style="shape=partialRectangle;overflow=hidden;connectable=0;fillColor=none;top=0;left=0;bottom=0;right=0;" vertex="1" parent="X0QKfnbGEKnTVk9c6X8E-65">
          <mxGeometry width="30" height="20" as="geometry">
            <mxRectangle width="30" height="20" as="alternateBounds" />
          </mxGeometry>
        </mxCell>
        <mxCell id="X0QKfnbGEKnTVk9c6X8E-67" value="comment varchar(200)" style="shape=partialRectangle;overflow=hidden;connectable=0;fillColor=none;top=0;left=0;bottom=0;right=0;align=left;spacingLeft=6;" vertex="1" parent="X0QKfnbGEKnTVk9c6X8E-65">
          <mxGeometry x="30" width="140" height="20" as="geometry">
            <mxRectangle width="140" height="20" as="alternateBounds" />
          </mxGeometry>
        </mxCell>
        <mxCell id="X0QKfnbGEKnTVk9c6X8E-68" value="Payment" style="shape=table;startSize=30;container=1;collapsible=1;childLayout=tableLayout;fixedRows=1;rowLines=0;fontStyle=1;align=center;resizeLast=1;fillColor=#dae8fc;strokeColor=#6c8ebf;" vertex="1" parent="1">
          <mxGeometry x="-730" y="-1740" width="180" height="180" as="geometry" />
        </mxCell>
        <mxCell id="X0QKfnbGEKnTVk9c6X8E-69" value="" style="shape=partialRectangle;collapsible=0;dropTarget=0;pointerEvents=0;fillColor=none;points=[[0,0.5],[1,0.5]];portConstraint=eastwest;top=0;left=0;right=0;bottom=1;" vertex="1" parent="X0QKfnbGEKnTVk9c6X8E-68">
          <mxGeometry y="30" width="180" height="30" as="geometry" />
        </mxCell>
        <mxCell id="X0QKfnbGEKnTVk9c6X8E-70" value="PK" style="shape=partialRectangle;overflow=hidden;connectable=0;fillColor=none;top=0;left=0;bottom=0;right=0;fontStyle=1;" vertex="1" parent="X0QKfnbGEKnTVk9c6X8E-69">
          <mxGeometry width="30" height="30" as="geometry">
            <mxRectangle width="30" height="30" as="alternateBounds" />
          </mxGeometry>
        </mxCell>
        <mxCell id="X0QKfnbGEKnTVk9c6X8E-71" value="payment_id int" style="shape=partialRectangle;overflow=hidden;connectable=0;fillColor=none;top=0;left=0;bottom=0;right=0;align=left;spacingLeft=6;fontStyle=5;" vertex="1" parent="X0QKfnbGEKnTVk9c6X8E-69">
          <mxGeometry x="30" width="150" height="30" as="geometry">
            <mxRectangle width="150" height="30" as="alternateBounds" />
          </mxGeometry>
        </mxCell>
        <mxCell id="X0QKfnbGEKnTVk9c6X8E-72" value="" style="shape=partialRectangle;collapsible=0;dropTarget=0;pointerEvents=0;fillColor=none;points=[[0,0.5],[1,0.5]];portConstraint=eastwest;top=0;left=0;right=0;bottom=0;" vertex="1" parent="X0QKfnbGEKnTVk9c6X8E-68">
          <mxGeometry y="60" width="180" height="20" as="geometry" />
        </mxCell>
        <mxCell id="X0QKfnbGEKnTVk9c6X8E-73" value="FK" style="shape=partialRectangle;overflow=hidden;connectable=0;fillColor=none;top=0;left=0;bottom=0;right=0;" vertex="1" parent="X0QKfnbGEKnTVk9c6X8E-72">
          <mxGeometry width="30" height="20" as="geometry">
            <mxRectangle width="30" height="20" as="alternateBounds" />
          </mxGeometry>
        </mxCell>
        <mxCell id="X0QKfnbGEKnTVk9c6X8E-74" value="requester_id int" style="shape=partialRectangle;overflow=hidden;connectable=0;fillColor=none;top=0;left=0;bottom=0;right=0;align=left;spacingLeft=6;" vertex="1" parent="X0QKfnbGEKnTVk9c6X8E-72">
          <mxGeometry x="30" width="150" height="20" as="geometry">
            <mxRectangle width="150" height="20" as="alternateBounds" />
          </mxGeometry>
        </mxCell>
        <mxCell id="X0QKfnbGEKnTVk9c6X8E-75" value="" style="shape=partialRectangle;collapsible=0;dropTarget=0;pointerEvents=0;fillColor=none;points=[[0,0.5],[1,0.5]];portConstraint=eastwest;top=0;left=0;right=0;bottom=0;" vertex="1" parent="X0QKfnbGEKnTVk9c6X8E-68">
          <mxGeometry y="80" width="180" height="20" as="geometry" />
        </mxCell>
        <mxCell id="X0QKfnbGEKnTVk9c6X8E-76" value="FK" style="shape=partialRectangle;overflow=hidden;connectable=0;fillColor=none;top=0;left=0;bottom=0;right=0;" vertex="1" parent="X0QKfnbGEKnTVk9c6X8E-75">
          <mxGeometry width="30" height="20" as="geometry">
            <mxRectangle width="30" height="20" as="alternateBounds" />
          </mxGeometry>
        </mxCell>
        <mxCell id="X0QKfnbGEKnTVk9c6X8E-77" value="provider_id int" style="shape=partialRectangle;overflow=hidden;connectable=0;fillColor=none;top=0;left=0;bottom=0;right=0;align=left;spacingLeft=6;" vertex="1" parent="X0QKfnbGEKnTVk9c6X8E-75">
          <mxGeometry x="30" width="150" height="20" as="geometry">
            <mxRectangle width="150" height="20" as="alternateBounds" />
          </mxGeometry>
        </mxCell>
        <mxCell id="X0QKfnbGEKnTVk9c6X8E-78" value="" style="shape=partialRectangle;collapsible=0;dropTarget=0;pointerEvents=0;fillColor=none;points=[[0,0.5],[1,0.5]];portConstraint=eastwest;top=0;left=0;right=0;bottom=0;" vertex="1" parent="X0QKfnbGEKnTVk9c6X8E-68">
          <mxGeometry y="100" width="180" height="20" as="geometry" />
        </mxCell>
        <mxCell id="X0QKfnbGEKnTVk9c6X8E-79" value="FK" style="shape=partialRectangle;overflow=hidden;connectable=0;fillColor=none;top=0;left=0;bottom=0;right=0;" vertex="1" parent="X0QKfnbGEKnTVk9c6X8E-78">
          <mxGeometry width="30" height="20" as="geometry">
            <mxRectangle width="30" height="20" as="alternateBounds" />
          </mxGeometry>
        </mxCell>
        <mxCell id="X0QKfnbGEKnTVk9c6X8E-80" value="service_id int" style="shape=partialRectangle;overflow=hidden;connectable=0;fillColor=none;top=0;left=0;bottom=0;right=0;align=left;spacingLeft=6;" vertex="1" parent="X0QKfnbGEKnTVk9c6X8E-78">
          <mxGeometry x="30" width="150" height="20" as="geometry">
            <mxRectangle width="150" height="20" as="alternateBounds" />
          </mxGeometry>
        </mxCell>
        <mxCell id="X0QKfnbGEKnTVk9c6X8E-81" value="" style="shape=partialRectangle;collapsible=0;dropTarget=0;pointerEvents=0;fillColor=none;points=[[0,0.5],[1,0.5]];portConstraint=eastwest;top=0;left=0;right=0;bottom=0;" vertex="1" parent="X0QKfnbGEKnTVk9c6X8E-68">
          <mxGeometry y="120" width="180" height="20" as="geometry" />
        </mxCell>
        <mxCell id="X0QKfnbGEKnTVk9c6X8E-82" value="" style="shape=partialRectangle;overflow=hidden;connectable=0;fillColor=none;top=0;left=0;bottom=0;right=0;" vertex="1" parent="X0QKfnbGEKnTVk9c6X8E-81">
          <mxGeometry width="30" height="20" as="geometry">
            <mxRectangle width="30" height="20" as="alternateBounds" />
          </mxGeometry>
        </mxCell>
        <mxCell id="X0QKfnbGEKnTVk9c6X8E-83" value="amount float" style="shape=partialRectangle;overflow=hidden;connectable=0;fillColor=none;top=0;left=0;bottom=0;right=0;align=left;spacingLeft=6;" vertex="1" parent="X0QKfnbGEKnTVk9c6X8E-81">
          <mxGeometry x="30" width="150" height="20" as="geometry">
            <mxRectangle width="150" height="20" as="alternateBounds" />
          </mxGeometry>
        </mxCell>
        <mxCell id="X0QKfnbGEKnTVk9c6X8E-84" value="" style="shape=partialRectangle;collapsible=0;dropTarget=0;pointerEvents=0;fillColor=none;points=[[0,0.5],[1,0.5]];portConstraint=eastwest;top=0;left=0;right=0;bottom=0;" vertex="1" parent="X0QKfnbGEKnTVk9c6X8E-68">
          <mxGeometry y="140" width="180" height="20" as="geometry" />
        </mxCell>
        <mxCell id="X0QKfnbGEKnTVk9c6X8E-85" value="" style="shape=partialRectangle;overflow=hidden;connectable=0;fillColor=none;top=0;left=0;bottom=0;right=0;" vertex="1" parent="X0QKfnbGEKnTVk9c6X8E-84">
          <mxGeometry width="30" height="20" as="geometry">
            <mxRectangle width="30" height="20" as="alternateBounds" />
          </mxGeometry>
        </mxCell>
        <mxCell id="X0QKfnbGEKnTVk9c6X8E-86" value="payment_date date" style="shape=partialRectangle;overflow=hidden;connectable=0;fillColor=none;top=0;left=0;bottom=0;right=0;align=left;spacingLeft=6;" vertex="1" parent="X0QKfnbGEKnTVk9c6X8E-84">
          <mxGeometry x="30" width="150" height="20" as="geometry">
            <mxRectangle width="150" height="20" as="alternateBounds" />
          </mxGeometry>
        </mxCell>
        <mxCell id="kZIPnpXtTYGKchgnMpPG-93" value="" style="shape=partialRectangle;collapsible=0;dropTarget=0;pointerEvents=0;fillColor=none;points=[[0,0.5],[1,0.5]];portConstraint=eastwest;top=0;left=0;right=0;bottom=0;" vertex="1" parent="X0QKfnbGEKnTVk9c6X8E-68">
          <mxGeometry y="160" width="180" height="20" as="geometry" />
        </mxCell>
        <mxCell id="kZIPnpXtTYGKchgnMpPG-94" value="" style="shape=partialRectangle;overflow=hidden;connectable=0;fillColor=none;top=0;left=0;bottom=0;right=0;" vertex="1" parent="kZIPnpXtTYGKchgnMpPG-93">
          <mxGeometry width="30" height="20" as="geometry">
            <mxRectangle width="30" height="20" as="alternateBounds" />
          </mxGeometry>
        </mxCell>
        <mxCell id="kZIPnpXtTYGKchgnMpPG-95" value="status varchar(200)" style="shape=partialRectangle;overflow=hidden;connectable=0;fillColor=none;top=0;left=0;bottom=0;right=0;align=left;spacingLeft=6;" vertex="1" parent="kZIPnpXtTYGKchgnMpPG-93">
          <mxGeometry x="30" width="150" height="20" as="geometry">
            <mxRectangle width="150" height="20" as="alternateBounds" />
          </mxGeometry>
        </mxCell>
        <mxCell id="X0QKfnbGEKnTVk9c6X8E-87" value="Proposal" style="shape=table;startSize=30;container=1;collapsible=1;childLayout=tableLayout;fixedRows=1;rowLines=0;fontStyle=1;align=center;resizeLast=1;fillColor=#dae8fc;strokeColor=#6c8ebf;" vertex="1" parent="1">
          <mxGeometry x="-1060" y="-1670" width="250" height="200" as="geometry" />
        </mxCell>
        <mxCell id="X0QKfnbGEKnTVk9c6X8E-88" value="" style="shape=partialRectangle;collapsible=0;dropTarget=0;pointerEvents=0;fillColor=none;points=[[0,0.5],[1,0.5]];portConstraint=eastwest;top=0;left=0;right=0;bottom=1;" vertex="1" parent="X0QKfnbGEKnTVk9c6X8E-87">
          <mxGeometry y="30" width="250" height="30" as="geometry" />
        </mxCell>
        <mxCell id="X0QKfnbGEKnTVk9c6X8E-89" value="PK" style="shape=partialRectangle;overflow=hidden;connectable=0;fillColor=none;top=0;left=0;bottom=0;right=0;fontStyle=1;" vertex="1" parent="X0QKfnbGEKnTVk9c6X8E-88">
          <mxGeometry width="30" height="30" as="geometry">
            <mxRectangle width="30" height="30" as="alternateBounds" />
          </mxGeometry>
        </mxCell>
        <mxCell id="X0QKfnbGEKnTVk9c6X8E-90" value="proposal_id int" style="shape=partialRectangle;overflow=hidden;connectable=0;fillColor=none;top=0;left=0;bottom=0;right=0;align=left;spacingLeft=6;fontStyle=5;" vertex="1" parent="X0QKfnbGEKnTVk9c6X8E-88">
          <mxGeometry x="30" width="220" height="30" as="geometry">
            <mxRectangle width="220" height="30" as="alternateBounds" />
          </mxGeometry>
        </mxCell>
        <mxCell id="X0QKfnbGEKnTVk9c6X8E-94" value="" style="shape=partialRectangle;collapsible=0;dropTarget=0;pointerEvents=0;fillColor=none;points=[[0,0.5],[1,0.5]];portConstraint=eastwest;top=0;left=0;right=0;bottom=0;" vertex="1" parent="X0QKfnbGEKnTVk9c6X8E-87">
          <mxGeometry y="60" width="250" height="20" as="geometry" />
        </mxCell>
        <mxCell id="X0QKfnbGEKnTVk9c6X8E-95" value="FK" style="shape=partialRectangle;overflow=hidden;connectable=0;fillColor=none;top=0;left=0;bottom=0;right=0;" vertex="1" parent="X0QKfnbGEKnTVk9c6X8E-94">
          <mxGeometry width="30" height="20" as="geometry">
            <mxRectangle width="30" height="20" as="alternateBounds" />
          </mxGeometry>
        </mxCell>
        <mxCell id="X0QKfnbGEKnTVk9c6X8E-96" value="provider_id int" style="shape=partialRectangle;overflow=hidden;connectable=0;fillColor=none;top=0;left=0;bottom=0;right=0;align=left;spacingLeft=6;" vertex="1" parent="X0QKfnbGEKnTVk9c6X8E-94">
          <mxGeometry x="30" width="220" height="20" as="geometry">
            <mxRectangle width="220" height="20" as="alternateBounds" />
          </mxGeometry>
        </mxCell>
        <mxCell id="X0QKfnbGEKnTVk9c6X8E-97" value="" style="shape=partialRectangle;collapsible=0;dropTarget=0;pointerEvents=0;fillColor=none;points=[[0,0.5],[1,0.5]];portConstraint=eastwest;top=0;left=0;right=0;bottom=0;" vertex="1" parent="X0QKfnbGEKnTVk9c6X8E-87">
          <mxGeometry y="80" width="250" height="20" as="geometry" />
        </mxCell>
        <mxCell id="X0QKfnbGEKnTVk9c6X8E-98" value="FK" style="shape=partialRectangle;overflow=hidden;connectable=0;fillColor=none;top=0;left=0;bottom=0;right=0;" vertex="1" parent="X0QKfnbGEKnTVk9c6X8E-97">
          <mxGeometry width="30" height="20" as="geometry">
            <mxRectangle width="30" height="20" as="alternateBounds" />
          </mxGeometry>
        </mxCell>
        <mxCell id="X0QKfnbGEKnTVk9c6X8E-99" value="service_id int" style="shape=partialRectangle;overflow=hidden;connectable=0;fillColor=none;top=0;left=0;bottom=0;right=0;align=left;spacingLeft=6;" vertex="1" parent="X0QKfnbGEKnTVk9c6X8E-97">
          <mxGeometry x="30" width="220" height="20" as="geometry">
            <mxRectangle width="220" height="20" as="alternateBounds" />
          </mxGeometry>
        </mxCell>
        <mxCell id="kZIPnpXtTYGKchgnMpPG-84" value="" style="shape=partialRectangle;collapsible=0;dropTarget=0;pointerEvents=0;fillColor=none;points=[[0,0.5],[1,0.5]];portConstraint=eastwest;top=0;left=0;right=0;bottom=0;" vertex="1" parent="X0QKfnbGEKnTVk9c6X8E-87">
          <mxGeometry y="100" width="250" height="20" as="geometry" />
        </mxCell>
        <mxCell id="kZIPnpXtTYGKchgnMpPG-85" value="FK" style="shape=partialRectangle;overflow=hidden;connectable=0;fillColor=none;top=0;left=0;bottom=0;right=0;" vertex="1" parent="kZIPnpXtTYGKchgnMpPG-84">
          <mxGeometry width="30" height="20" as="geometry">
            <mxRectangle width="30" height="20" as="alternateBounds" />
          </mxGeometry>
        </mxCell>
        <mxCell id="kZIPnpXtTYGKchgnMpPG-86" value="requester_id int" style="shape=partialRectangle;overflow=hidden;connectable=0;fillColor=none;top=0;left=0;bottom=0;right=0;align=left;spacingLeft=6;" vertex="1" parent="kZIPnpXtTYGKchgnMpPG-84">
          <mxGeometry x="30" width="220" height="20" as="geometry">
            <mxRectangle width="220" height="20" as="alternateBounds" />
          </mxGeometry>
        </mxCell>
        <mxCell id="X0QKfnbGEKnTVk9c6X8E-100" value="" style="shape=partialRectangle;collapsible=0;dropTarget=0;pointerEvents=0;fillColor=none;points=[[0,0.5],[1,0.5]];portConstraint=eastwest;top=0;left=0;right=0;bottom=0;" vertex="1" parent="X0QKfnbGEKnTVk9c6X8E-87">
          <mxGeometry y="120" width="250" height="20" as="geometry" />
        </mxCell>
        <mxCell id="X0QKfnbGEKnTVk9c6X8E-101" value="" style="shape=partialRectangle;overflow=hidden;connectable=0;fillColor=none;top=0;left=0;bottom=0;right=0;" vertex="1" parent="X0QKfnbGEKnTVk9c6X8E-100">
          <mxGeometry width="30" height="20" as="geometry">
            <mxRectangle width="30" height="20" as="alternateBounds" />
          </mxGeometry>
        </mxCell>
        <mxCell id="X0QKfnbGEKnTVk9c6X8E-102" value="proposal_amount float" style="shape=partialRectangle;overflow=hidden;connectable=0;fillColor=none;top=0;left=0;bottom=0;right=0;align=left;spacingLeft=6;" vertex="1" parent="X0QKfnbGEKnTVk9c6X8E-100">
          <mxGeometry x="30" width="220" height="20" as="geometry">
            <mxRectangle width="220" height="20" as="alternateBounds" />
          </mxGeometry>
        </mxCell>
        <mxCell id="X0QKfnbGEKnTVk9c6X8E-103" value="" style="shape=partialRectangle;collapsible=0;dropTarget=0;pointerEvents=0;fillColor=none;points=[[0,0.5],[1,0.5]];portConstraint=eastwest;top=0;left=0;right=0;bottom=0;" vertex="1" parent="X0QKfnbGEKnTVk9c6X8E-87">
          <mxGeometry y="140" width="250" height="20" as="geometry" />
        </mxCell>
        <mxCell id="X0QKfnbGEKnTVk9c6X8E-104" value="" style="shape=partialRectangle;overflow=hidden;connectable=0;fillColor=none;top=0;left=0;bottom=0;right=0;" vertex="1" parent="X0QKfnbGEKnTVk9c6X8E-103">
          <mxGeometry width="30" height="20" as="geometry">
            <mxRectangle width="30" height="20" as="alternateBounds" />
          </mxGeometry>
        </mxCell>
        <mxCell id="X0QKfnbGEKnTVk9c6X8E-105" value="status varchar(50)" style="shape=partialRectangle;overflow=hidden;connectable=0;fillColor=none;top=0;left=0;bottom=0;right=0;align=left;spacingLeft=6;" vertex="1" parent="X0QKfnbGEKnTVk9c6X8E-103">
          <mxGeometry x="30" width="220" height="20" as="geometry">
            <mxRectangle width="220" height="20" as="alternateBounds" />
          </mxGeometry>
        </mxCell>
        <mxCell id="kZIPnpXtTYGKchgnMpPG-87" value="" style="shape=partialRectangle;collapsible=0;dropTarget=0;pointerEvents=0;fillColor=none;points=[[0,0.5],[1,0.5]];portConstraint=eastwest;top=0;left=0;right=0;bottom=0;" vertex="1" parent="X0QKfnbGEKnTVk9c6X8E-87">
          <mxGeometry y="160" width="250" height="20" as="geometry" />
        </mxCell>
        <mxCell id="kZIPnpXtTYGKchgnMpPG-88" value="" style="shape=partialRectangle;overflow=hidden;connectable=0;fillColor=none;top=0;left=0;bottom=0;right=0;" vertex="1" parent="kZIPnpXtTYGKchgnMpPG-87">
          <mxGeometry width="30" height="20" as="geometry">
            <mxRectangle width="30" height="20" as="alternateBounds" />
          </mxGeometry>
        </mxCell>
        <mxCell id="kZIPnpXtTYGKchgnMpPG-89" value="proposal_date date" style="shape=partialRectangle;overflow=hidden;connectable=0;fillColor=none;top=0;left=0;bottom=0;right=0;align=left;spacingLeft=6;" vertex="1" parent="kZIPnpXtTYGKchgnMpPG-87">
          <mxGeometry x="30" width="220" height="20" as="geometry">
            <mxRectangle width="220" height="20" as="alternateBounds" />
          </mxGeometry>
        </mxCell>
        <mxCell id="kZIPnpXtTYGKchgnMpPG-90" value="" style="shape=partialRectangle;collapsible=0;dropTarget=0;pointerEvents=0;fillColor=none;points=[[0,0.5],[1,0.5]];portConstraint=eastwest;top=0;left=0;right=0;bottom=0;" vertex="1" parent="X0QKfnbGEKnTVk9c6X8E-87">
          <mxGeometry y="180" width="250" height="20" as="geometry" />
        </mxCell>
        <mxCell id="kZIPnpXtTYGKchgnMpPG-91" value="" style="shape=partialRectangle;overflow=hidden;connectable=0;fillColor=none;top=0;left=0;bottom=0;right=0;" vertex="1" parent="kZIPnpXtTYGKchgnMpPG-90">
          <mxGeometry width="30" height="20" as="geometry">
            <mxRectangle width="30" height="20" as="alternateBounds" />
          </mxGeometry>
        </mxCell>
        <mxCell id="kZIPnpXtTYGKchgnMpPG-92" value="counter_amount int" style="shape=partialRectangle;overflow=hidden;connectable=0;fillColor=none;top=0;left=0;bottom=0;right=0;align=left;spacingLeft=6;" vertex="1" parent="kZIPnpXtTYGKchgnMpPG-90">
          <mxGeometry x="30" width="220" height="20" as="geometry">
            <mxRectangle width="220" height="20" as="alternateBounds" />
          </mxGeometry>
        </mxCell>
        <mxCell id="kZIPnpXtTYGKchgnMpPG-1" value="User" style="shape=table;startSize=30;container=1;collapsible=1;childLayout=tableLayout;fixedRows=1;rowLines=0;fontStyle=1;align=center;resizeLast=1;fillColor=#dae8fc;strokeColor=#6c8ebf;" vertex="1" parent="1">
          <mxGeometry x="-1110" y="-2160" width="200" height="180" as="geometry" />
        </mxCell>
        <mxCell id="kZIPnpXtTYGKchgnMpPG-2" value="" style="shape=partialRectangle;collapsible=0;dropTarget=0;pointerEvents=0;fillColor=none;points=[[0,0.5],[1,0.5]];portConstraint=eastwest;top=0;left=0;right=0;bottom=1;" vertex="1" parent="kZIPnpXtTYGKchgnMpPG-1">
          <mxGeometry y="30" width="200" height="30" as="geometry" />
        </mxCell>
        <mxCell id="kZIPnpXtTYGKchgnMpPG-3" value="PK" style="shape=partialRectangle;overflow=hidden;connectable=0;fillColor=none;top=0;left=0;bottom=0;right=0;fontStyle=1;" vertex="1" parent="kZIPnpXtTYGKchgnMpPG-2">
          <mxGeometry width="30" height="30" as="geometry">
            <mxRectangle width="30" height="30" as="alternateBounds" />
          </mxGeometry>
        </mxCell>
        <mxCell id="kZIPnpXtTYGKchgnMpPG-4" value="user_id int" style="shape=partialRectangle;overflow=hidden;connectable=0;fillColor=none;top=0;left=0;bottom=0;right=0;align=left;spacingLeft=6;fontStyle=5;" vertex="1" parent="kZIPnpXtTYGKchgnMpPG-2">
          <mxGeometry x="30" width="170" height="30" as="geometry">
            <mxRectangle width="170" height="30" as="alternateBounds" />
          </mxGeometry>
        </mxCell>
        <mxCell id="kZIPnpXtTYGKchgnMpPG-5" value="" style="shape=partialRectangle;collapsible=0;dropTarget=0;pointerEvents=0;fillColor=none;points=[[0,0.5],[1,0.5]];portConstraint=eastwest;top=0;left=0;right=0;bottom=0;" vertex="1" parent="kZIPnpXtTYGKchgnMpPG-1">
          <mxGeometry y="60" width="200" height="20" as="geometry" />
        </mxCell>
        <mxCell id="kZIPnpXtTYGKchgnMpPG-6" value="" style="shape=partialRectangle;overflow=hidden;connectable=0;fillColor=none;top=0;left=0;bottom=0;right=0;" vertex="1" parent="kZIPnpXtTYGKchgnMpPG-5">
          <mxGeometry width="30" height="20" as="geometry">
            <mxRectangle width="30" height="20" as="alternateBounds" />
          </mxGeometry>
        </mxCell>
        <mxCell id="kZIPnpXtTYGKchgnMpPG-7" value="username varchar(50)" style="shape=partialRectangle;overflow=hidden;connectable=0;fillColor=none;top=0;left=0;bottom=0;right=0;align=left;spacingLeft=6;" vertex="1" parent="kZIPnpXtTYGKchgnMpPG-5">
          <mxGeometry x="30" width="170" height="20" as="geometry">
            <mxRectangle width="170" height="20" as="alternateBounds" />
          </mxGeometry>
        </mxCell>
        <mxCell id="kZIPnpXtTYGKchgnMpPG-8" value="" style="shape=partialRectangle;collapsible=0;dropTarget=0;pointerEvents=0;fillColor=none;points=[[0,0.5],[1,0.5]];portConstraint=eastwest;top=0;left=0;right=0;bottom=0;" vertex="1" parent="kZIPnpXtTYGKchgnMpPG-1">
          <mxGeometry y="80" width="200" height="20" as="geometry" />
        </mxCell>
        <mxCell id="kZIPnpXtTYGKchgnMpPG-9" value="" style="shape=partialRectangle;overflow=hidden;connectable=0;fillColor=none;top=0;left=0;bottom=0;right=0;" vertex="1" parent="kZIPnpXtTYGKchgnMpPG-8">
          <mxGeometry width="30" height="20" as="geometry">
            <mxRectangle width="30" height="20" as="alternateBounds" />
          </mxGeometry>
        </mxCell>
        <mxCell id="kZIPnpXtTYGKchgnMpPG-10" value="password varchar(10)" style="shape=partialRectangle;overflow=hidden;connectable=0;fillColor=none;top=0;left=0;bottom=0;right=0;align=left;spacingLeft=6;" vertex="1" parent="kZIPnpXtTYGKchgnMpPG-8">
          <mxGeometry x="30" width="170" height="20" as="geometry">
            <mxRectangle width="170" height="20" as="alternateBounds" />
          </mxGeometry>
        </mxCell>
        <mxCell id="kZIPnpXtTYGKchgnMpPG-11" value="" style="shape=partialRectangle;collapsible=0;dropTarget=0;pointerEvents=0;fillColor=none;points=[[0,0.5],[1,0.5]];portConstraint=eastwest;top=0;left=0;right=0;bottom=0;" vertex="1" parent="kZIPnpXtTYGKchgnMpPG-1">
          <mxGeometry y="100" width="200" height="20" as="geometry" />
        </mxCell>
        <mxCell id="kZIPnpXtTYGKchgnMpPG-12" value="" style="shape=partialRectangle;overflow=hidden;connectable=0;fillColor=none;top=0;left=0;bottom=0;right=0;" vertex="1" parent="kZIPnpXtTYGKchgnMpPG-11">
          <mxGeometry width="30" height="20" as="geometry">
            <mxRectangle width="30" height="20" as="alternateBounds" />
          </mxGeometry>
        </mxCell>
        <mxCell id="kZIPnpXtTYGKchgnMpPG-13" value="email varchar(100)" style="shape=partialRectangle;overflow=hidden;connectable=0;fillColor=none;top=0;left=0;bottom=0;right=0;align=left;spacingLeft=6;" vertex="1" parent="kZIPnpXtTYGKchgnMpPG-11">
          <mxGeometry x="30" width="170" height="20" as="geometry">
            <mxRectangle width="170" height="20" as="alternateBounds" />
          </mxGeometry>
        </mxCell>
        <mxCell id="kZIPnpXtTYGKchgnMpPG-14" value="" style="shape=partialRectangle;collapsible=0;dropTarget=0;pointerEvents=0;fillColor=none;points=[[0,0.5],[1,0.5]];portConstraint=eastwest;top=0;left=0;right=0;bottom=0;" vertex="1" parent="kZIPnpXtTYGKchgnMpPG-1">
          <mxGeometry y="120" width="200" height="20" as="geometry" />
        </mxCell>
        <mxCell id="kZIPnpXtTYGKchgnMpPG-15" value="" style="shape=partialRectangle;overflow=hidden;connectable=0;fillColor=none;top=0;left=0;bottom=0;right=0;" vertex="1" parent="kZIPnpXtTYGKchgnMpPG-14">
          <mxGeometry width="30" height="20" as="geometry">
            <mxRectangle width="30" height="20" as="alternateBounds" />
          </mxGeometry>
        </mxCell>
        <mxCell id="kZIPnpXtTYGKchgnMpPG-16" value="phone_number varchar(11)" style="shape=partialRectangle;overflow=hidden;connectable=0;fillColor=none;top=0;left=0;bottom=0;right=0;align=left;spacingLeft=6;" vertex="1" parent="kZIPnpXtTYGKchgnMpPG-14">
          <mxGeometry x="30" width="170" height="20" as="geometry">
            <mxRectangle width="170" height="20" as="alternateBounds" />
          </mxGeometry>
        </mxCell>
        <mxCell id="kZIPnpXtTYGKchgnMpPG-17" value="" style="shape=partialRectangle;collapsible=0;dropTarget=0;pointerEvents=0;fillColor=none;points=[[0,0.5],[1,0.5]];portConstraint=eastwest;top=0;left=0;right=0;bottom=0;" vertex="1" parent="kZIPnpXtTYGKchgnMpPG-1">
          <mxGeometry y="140" width="200" height="20" as="geometry" />
        </mxCell>
        <mxCell id="kZIPnpXtTYGKchgnMpPG-18" value="" style="shape=partialRectangle;overflow=hidden;connectable=0;fillColor=none;top=0;left=0;bottom=0;right=0;" vertex="1" parent="kZIPnpXtTYGKchgnMpPG-17">
          <mxGeometry width="30" height="20" as="geometry">
            <mxRectangle width="30" height="20" as="alternateBounds" />
          </mxGeometry>
        </mxCell>
        <mxCell id="kZIPnpXtTYGKchgnMpPG-19" value="status varchar(10)" style="shape=partialRectangle;overflow=hidden;connectable=0;fillColor=none;top=0;left=0;bottom=0;right=0;align=left;spacingLeft=6;" vertex="1" parent="kZIPnpXtTYGKchgnMpPG-17">
          <mxGeometry x="30" width="170" height="20" as="geometry">
            <mxRectangle width="170" height="20" as="alternateBounds" />
          </mxGeometry>
        </mxCell>
        <mxCell id="kZIPnpXtTYGKchgnMpPG-21" value="" style="shape=partialRectangle;collapsible=0;dropTarget=0;pointerEvents=0;fillColor=none;points=[[0,0.5],[1,0.5]];portConstraint=eastwest;top=0;left=0;right=0;bottom=0;" vertex="1" parent="kZIPnpXtTYGKchgnMpPG-1">
          <mxGeometry y="160" width="200" height="20" as="geometry" />
        </mxCell>
        <mxCell id="kZIPnpXtTYGKchgnMpPG-22" value="" style="shape=partialRectangle;overflow=hidden;connectable=0;fillColor=none;top=0;left=0;bottom=0;right=0;" vertex="1" parent="kZIPnpXtTYGKchgnMpPG-21">
          <mxGeometry width="30" height="20" as="geometry">
            <mxRectangle width="30" height="20" as="alternateBounds" />
          </mxGeometry>
        </mxCell>
        <mxCell id="kZIPnpXtTYGKchgnMpPG-23" value="account_type varchar(10)" style="shape=partialRectangle;overflow=hidden;connectable=0;fillColor=none;top=0;left=0;bottom=0;right=0;align=left;spacingLeft=6;" vertex="1" parent="kZIPnpXtTYGKchgnMpPG-21">
          <mxGeometry x="30" width="170" height="20" as="geometry">
            <mxRectangle width="170" height="20" as="alternateBounds" />
          </mxGeometry>
        </mxCell>
        <mxCell id="kZIPnpXtTYGKchgnMpPG-24" value="ChatSession" style="shape=table;startSize=30;container=1;collapsible=1;childLayout=tableLayout;fixedRows=1;rowLines=0;fontStyle=1;align=center;resizeLast=1;fillColor=#dae8fc;strokeColor=#6c8ebf;" vertex="1" parent="1">
          <mxGeometry x="-830" y="-2160" width="200" height="160" as="geometry" />
        </mxCell>
        <mxCell id="kZIPnpXtTYGKchgnMpPG-25" value="" style="shape=partialRectangle;collapsible=0;dropTarget=0;pointerEvents=0;fillColor=none;points=[[0,0.5],[1,0.5]];portConstraint=eastwest;top=0;left=0;right=0;bottom=1;" vertex="1" parent="kZIPnpXtTYGKchgnMpPG-24">
          <mxGeometry y="30" width="200" height="30" as="geometry" />
        </mxCell>
        <mxCell id="kZIPnpXtTYGKchgnMpPG-26" value="PK" style="shape=partialRectangle;overflow=hidden;connectable=0;fillColor=none;top=0;left=0;bottom=0;right=0;fontStyle=1;" vertex="1" parent="kZIPnpXtTYGKchgnMpPG-25">
          <mxGeometry width="30" height="30" as="geometry">
            <mxRectangle width="30" height="30" as="alternateBounds" />
          </mxGeometry>
        </mxCell>
        <mxCell id="kZIPnpXtTYGKchgnMpPG-27" value="session_id int" style="shape=partialRectangle;overflow=hidden;connectable=0;fillColor=none;top=0;left=0;bottom=0;right=0;align=left;spacingLeft=6;fontStyle=5;" vertex="1" parent="kZIPnpXtTYGKchgnMpPG-25">
          <mxGeometry x="30" width="170" height="30" as="geometry">
            <mxRectangle width="170" height="30" as="alternateBounds" />
          </mxGeometry>
        </mxCell>
        <mxCell id="kZIPnpXtTYGKchgnMpPG-28" value="" style="shape=partialRectangle;collapsible=0;dropTarget=0;pointerEvents=0;fillColor=none;points=[[0,0.5],[1,0.5]];portConstraint=eastwest;top=0;left=0;right=0;bottom=0;" vertex="1" parent="kZIPnpXtTYGKchgnMpPG-24">
          <mxGeometry y="60" width="200" height="20" as="geometry" />
        </mxCell>
        <mxCell id="kZIPnpXtTYGKchgnMpPG-29" value="FK" style="shape=partialRectangle;overflow=hidden;connectable=0;fillColor=none;top=0;left=0;bottom=0;right=0;" vertex="1" parent="kZIPnpXtTYGKchgnMpPG-28">
          <mxGeometry width="30" height="20" as="geometry">
            <mxRectangle width="30" height="20" as="alternateBounds" />
          </mxGeometry>
        </mxCell>
        <mxCell id="kZIPnpXtTYGKchgnMpPG-30" value="user_id int" style="shape=partialRectangle;overflow=hidden;connectable=0;fillColor=none;top=0;left=0;bottom=0;right=0;align=left;spacingLeft=6;" vertex="1" parent="kZIPnpXtTYGKchgnMpPG-28">
          <mxGeometry x="30" width="170" height="20" as="geometry">
            <mxRectangle width="170" height="20" as="alternateBounds" />
          </mxGeometry>
        </mxCell>
        <mxCell id="kZIPnpXtTYGKchgnMpPG-31" value="" style="shape=partialRectangle;collapsible=0;dropTarget=0;pointerEvents=0;fillColor=none;points=[[0,0.5],[1,0.5]];portConstraint=eastwest;top=0;left=0;right=0;bottom=0;" vertex="1" parent="kZIPnpXtTYGKchgnMpPG-24">
          <mxGeometry y="80" width="200" height="20" as="geometry" />
        </mxCell>
        <mxCell id="kZIPnpXtTYGKchgnMpPG-32" value="" style="shape=partialRectangle;overflow=hidden;connectable=0;fillColor=none;top=0;left=0;bottom=0;right=0;" vertex="1" parent="kZIPnpXtTYGKchgnMpPG-31">
          <mxGeometry width="30" height="20" as="geometry">
            <mxRectangle width="30" height="20" as="alternateBounds" />
          </mxGeometry>
        </mxCell>
        <mxCell id="kZIPnpXtTYGKchgnMpPG-33" value="message varchar(200)" style="shape=partialRectangle;overflow=hidden;connectable=0;fillColor=none;top=0;left=0;bottom=0;right=0;align=left;spacingLeft=6;" vertex="1" parent="kZIPnpXtTYGKchgnMpPG-31">
          <mxGeometry x="30" width="170" height="20" as="geometry">
            <mxRectangle width="170" height="20" as="alternateBounds" />
          </mxGeometry>
        </mxCell>
        <mxCell id="kZIPnpXtTYGKchgnMpPG-34" value="" style="shape=partialRectangle;collapsible=0;dropTarget=0;pointerEvents=0;fillColor=none;points=[[0,0.5],[1,0.5]];portConstraint=eastwest;top=0;left=0;right=0;bottom=0;" vertex="1" parent="kZIPnpXtTYGKchgnMpPG-24">
          <mxGeometry y="100" width="200" height="20" as="geometry" />
        </mxCell>
        <mxCell id="kZIPnpXtTYGKchgnMpPG-35" value="" style="shape=partialRectangle;overflow=hidden;connectable=0;fillColor=none;top=0;left=0;bottom=0;right=0;" vertex="1" parent="kZIPnpXtTYGKchgnMpPG-34">
          <mxGeometry width="30" height="20" as="geometry">
            <mxRectangle width="30" height="20" as="alternateBounds" />
          </mxGeometry>
        </mxCell>
        <mxCell id="kZIPnpXtTYGKchgnMpPG-36" value="start_time date" style="shape=partialRectangle;overflow=hidden;connectable=0;fillColor=none;top=0;left=0;bottom=0;right=0;align=left;spacingLeft=6;" vertex="1" parent="kZIPnpXtTYGKchgnMpPG-34">
          <mxGeometry x="30" width="170" height="20" as="geometry">
            <mxRectangle width="170" height="20" as="alternateBounds" />
          </mxGeometry>
        </mxCell>
        <mxCell id="kZIPnpXtTYGKchgnMpPG-37" value="" style="shape=partialRectangle;collapsible=0;dropTarget=0;pointerEvents=0;fillColor=none;points=[[0,0.5],[1,0.5]];portConstraint=eastwest;top=0;left=0;right=0;bottom=0;" vertex="1" parent="kZIPnpXtTYGKchgnMpPG-24">
          <mxGeometry y="120" width="200" height="20" as="geometry" />
        </mxCell>
        <mxCell id="kZIPnpXtTYGKchgnMpPG-38" value="" style="shape=partialRectangle;overflow=hidden;connectable=0;fillColor=none;top=0;left=0;bottom=0;right=0;" vertex="1" parent="kZIPnpXtTYGKchgnMpPG-37">
          <mxGeometry width="30" height="20" as="geometry">
            <mxRectangle width="30" height="20" as="alternateBounds" />
          </mxGeometry>
        </mxCell>
        <mxCell id="kZIPnpXtTYGKchgnMpPG-39" value="end_time date" style="shape=partialRectangle;overflow=hidden;connectable=0;fillColor=none;top=0;left=0;bottom=0;right=0;align=left;spacingLeft=6;" vertex="1" parent="kZIPnpXtTYGKchgnMpPG-37">
          <mxGeometry x="30" width="170" height="20" as="geometry">
            <mxRectangle width="170" height="20" as="alternateBounds" />
          </mxGeometry>
        </mxCell>
        <mxCell id="kZIPnpXtTYGKchgnMpPG-40" value="" style="shape=partialRectangle;collapsible=0;dropTarget=0;pointerEvents=0;fillColor=none;points=[[0,0.5],[1,0.5]];portConstraint=eastwest;top=0;left=0;right=0;bottom=0;" vertex="1" parent="kZIPnpXtTYGKchgnMpPG-24">
          <mxGeometry y="140" width="200" height="20" as="geometry" />
        </mxCell>
        <mxCell id="kZIPnpXtTYGKchgnMpPG-41" value="" style="shape=partialRectangle;overflow=hidden;connectable=0;fillColor=none;top=0;left=0;bottom=0;right=0;" vertex="1" parent="kZIPnpXtTYGKchgnMpPG-40">
          <mxGeometry width="30" height="20" as="geometry">
            <mxRectangle width="30" height="20" as="alternateBounds" />
          </mxGeometry>
        </mxCell>
        <mxCell id="kZIPnpXtTYGKchgnMpPG-42" value="status varchar(10)" style="shape=partialRectangle;overflow=hidden;connectable=0;fillColor=none;top=0;left=0;bottom=0;right=0;align=left;spacingLeft=6;" vertex="1" parent="kZIPnpXtTYGKchgnMpPG-40">
          <mxGeometry x="30" width="170" height="20" as="geometry">
            <mxRectangle width="170" height="20" as="alternateBounds" />
          </mxGeometry>
        </mxCell>
        <mxCell id="kZIPnpXtTYGKchgnMpPG-52" value="SystemAdmin" style="shape=table;startSize=30;container=1;collapsible=1;childLayout=tableLayout;fixedRows=1;rowLines=0;fontStyle=1;align=center;resizeLast=1;fillColor=#dae8fc;strokeColor=#6c8ebf;" vertex="1" parent="1">
          <mxGeometry x="-500" y="-1910" width="180" height="60" as="geometry" />
        </mxCell>
        <mxCell id="kZIPnpXtTYGKchgnMpPG-53" value="" style="shape=partialRectangle;collapsible=0;dropTarget=0;pointerEvents=0;fillColor=none;points=[[0,0.5],[1,0.5]];portConstraint=eastwest;top=0;left=0;right=0;bottom=1;" vertex="1" parent="kZIPnpXtTYGKchgnMpPG-52">
          <mxGeometry y="30" width="180" height="30" as="geometry" />
        </mxCell>
        <mxCell id="kZIPnpXtTYGKchgnMpPG-54" value="PK" style="shape=partialRectangle;overflow=hidden;connectable=0;fillColor=none;top=0;left=0;bottom=0;right=0;fontStyle=1;" vertex="1" parent="kZIPnpXtTYGKchgnMpPG-53">
          <mxGeometry width="30" height="30" as="geometry">
            <mxRectangle width="30" height="30" as="alternateBounds" />
          </mxGeometry>
        </mxCell>
        <mxCell id="kZIPnpXtTYGKchgnMpPG-55" value="admin_id int" style="shape=partialRectangle;overflow=hidden;connectable=0;fillColor=none;top=0;left=0;bottom=0;right=0;align=left;spacingLeft=6;fontStyle=5;" vertex="1" parent="kZIPnpXtTYGKchgnMpPG-53">
          <mxGeometry x="30" width="150" height="30" as="geometry">
            <mxRectangle width="150" height="30" as="alternateBounds" />
          </mxGeometry>
        </mxCell>
        <mxCell id="kZIPnpXtTYGKchgnMpPG-62" value="PaymentMethod" style="shape=table;startSize=30;container=1;collapsible=1;childLayout=tableLayout;fixedRows=1;rowLines=0;fontStyle=1;align=center;resizeLast=1;fillColor=#dae8fc;strokeColor=#6c8ebf;" vertex="1" parent="1">
          <mxGeometry x="-1350" y="-1570" width="195" height="180" as="geometry" />
        </mxCell>
        <mxCell id="kZIPnpXtTYGKchgnMpPG-63" value="" style="shape=partialRectangle;collapsible=0;dropTarget=0;pointerEvents=0;fillColor=none;points=[[0,0.5],[1,0.5]];portConstraint=eastwest;top=0;left=0;right=0;bottom=1;" vertex="1" parent="kZIPnpXtTYGKchgnMpPG-62">
          <mxGeometry y="30" width="195" height="30" as="geometry" />
        </mxCell>
        <mxCell id="kZIPnpXtTYGKchgnMpPG-64" value="PK" style="shape=partialRectangle;overflow=hidden;connectable=0;fillColor=none;top=0;left=0;bottom=0;right=0;fontStyle=1;" vertex="1" parent="kZIPnpXtTYGKchgnMpPG-63">
          <mxGeometry width="30" height="30" as="geometry">
            <mxRectangle width="30" height="30" as="alternateBounds" />
          </mxGeometry>
        </mxCell>
        <mxCell id="kZIPnpXtTYGKchgnMpPG-65" value="method_id int" style="shape=partialRectangle;overflow=hidden;connectable=0;fillColor=none;top=0;left=0;bottom=0;right=0;align=left;spacingLeft=6;fontStyle=5;" vertex="1" parent="kZIPnpXtTYGKchgnMpPG-63">
          <mxGeometry x="30" width="165" height="30" as="geometry">
            <mxRectangle width="165" height="30" as="alternateBounds" />
          </mxGeometry>
        </mxCell>
        <mxCell id="kZIPnpXtTYGKchgnMpPG-66" value="" style="shape=partialRectangle;collapsible=0;dropTarget=0;pointerEvents=0;fillColor=none;points=[[0,0.5],[1,0.5]];portConstraint=eastwest;top=0;left=0;right=0;bottom=0;" vertex="1" parent="kZIPnpXtTYGKchgnMpPG-62">
          <mxGeometry y="60" width="195" height="20" as="geometry" />
        </mxCell>
        <mxCell id="kZIPnpXtTYGKchgnMpPG-67" value="FK" style="shape=partialRectangle;overflow=hidden;connectable=0;fillColor=none;top=0;left=0;bottom=0;right=0;" vertex="1" parent="kZIPnpXtTYGKchgnMpPG-66">
          <mxGeometry width="30" height="20" as="geometry">
            <mxRectangle width="30" height="20" as="alternateBounds" />
          </mxGeometry>
        </mxCell>
        <mxCell id="kZIPnpXtTYGKchgnMpPG-68" value="user_id int" style="shape=partialRectangle;overflow=hidden;connectable=0;fillColor=none;top=0;left=0;bottom=0;right=0;align=left;spacingLeft=6;" vertex="1" parent="kZIPnpXtTYGKchgnMpPG-66">
          <mxGeometry x="30" width="165" height="20" as="geometry">
            <mxRectangle width="165" height="20" as="alternateBounds" />
          </mxGeometry>
        </mxCell>
        <mxCell id="kZIPnpXtTYGKchgnMpPG-69" value="" style="shape=partialRectangle;collapsible=0;dropTarget=0;pointerEvents=0;fillColor=none;points=[[0,0.5],[1,0.5]];portConstraint=eastwest;top=0;left=0;right=0;bottom=0;" vertex="1" parent="kZIPnpXtTYGKchgnMpPG-62">
          <mxGeometry y="80" width="195" height="20" as="geometry" />
        </mxCell>
        <mxCell id="kZIPnpXtTYGKchgnMpPG-70" value="" style="shape=partialRectangle;overflow=hidden;connectable=0;fillColor=none;top=0;left=0;bottom=0;right=0;" vertex="1" parent="kZIPnpXtTYGKchgnMpPG-69">
          <mxGeometry width="30" height="20" as="geometry">
            <mxRectangle width="30" height="20" as="alternateBounds" />
          </mxGeometry>
        </mxCell>
        <mxCell id="kZIPnpXtTYGKchgnMpPG-71" value="type varchar(10)" style="shape=partialRectangle;overflow=hidden;connectable=0;fillColor=none;top=0;left=0;bottom=0;right=0;align=left;spacingLeft=6;" vertex="1" parent="kZIPnpXtTYGKchgnMpPG-69">
          <mxGeometry x="30" width="165" height="20" as="geometry">
            <mxRectangle width="165" height="20" as="alternateBounds" />
          </mxGeometry>
        </mxCell>
        <mxCell id="kZIPnpXtTYGKchgnMpPG-72" value="" style="shape=partialRectangle;collapsible=0;dropTarget=0;pointerEvents=0;fillColor=none;points=[[0,0.5],[1,0.5]];portConstraint=eastwest;top=0;left=0;right=0;bottom=0;" vertex="1" parent="kZIPnpXtTYGKchgnMpPG-62">
          <mxGeometry y="100" width="195" height="20" as="geometry" />
        </mxCell>
        <mxCell id="kZIPnpXtTYGKchgnMpPG-73" value="" style="shape=partialRectangle;overflow=hidden;connectable=0;fillColor=none;top=0;left=0;bottom=0;right=0;" vertex="1" parent="kZIPnpXtTYGKchgnMpPG-72">
          <mxGeometry width="30" height="20" as="geometry">
            <mxRectangle width="30" height="20" as="alternateBounds" />
          </mxGeometry>
        </mxCell>
        <mxCell id="kZIPnpXtTYGKchgnMpPG-74" value="account_number int" style="shape=partialRectangle;overflow=hidden;connectable=0;fillColor=none;top=0;left=0;bottom=0;right=0;align=left;spacingLeft=6;" vertex="1" parent="kZIPnpXtTYGKchgnMpPG-72">
          <mxGeometry x="30" width="165" height="20" as="geometry">
            <mxRectangle width="165" height="20" as="alternateBounds" />
          </mxGeometry>
        </mxCell>
        <mxCell id="kZIPnpXtTYGKchgnMpPG-75" value="" style="shape=partialRectangle;collapsible=0;dropTarget=0;pointerEvents=0;fillColor=none;points=[[0,0.5],[1,0.5]];portConstraint=eastwest;top=0;left=0;right=0;bottom=0;" vertex="1" parent="kZIPnpXtTYGKchgnMpPG-62">
          <mxGeometry y="120" width="195" height="20" as="geometry" />
        </mxCell>
        <mxCell id="kZIPnpXtTYGKchgnMpPG-76" value="" style="shape=partialRectangle;overflow=hidden;connectable=0;fillColor=none;top=0;left=0;bottom=0;right=0;" vertex="1" parent="kZIPnpXtTYGKchgnMpPG-75">
          <mxGeometry width="30" height="20" as="geometry">
            <mxRectangle width="30" height="20" as="alternateBounds" />
          </mxGeometry>
        </mxCell>
        <mxCell id="kZIPnpXtTYGKchgnMpPG-77" value="expiry_date date" style="shape=partialRectangle;overflow=hidden;connectable=0;fillColor=none;top=0;left=0;bottom=0;right=0;align=left;spacingLeft=6;" vertex="1" parent="kZIPnpXtTYGKchgnMpPG-75">
          <mxGeometry x="30" width="165" height="20" as="geometry">
            <mxRectangle width="165" height="20" as="alternateBounds" />
          </mxGeometry>
        </mxCell>
        <mxCell id="kZIPnpXtTYGKchgnMpPG-78" value="" style="shape=partialRectangle;collapsible=0;dropTarget=0;pointerEvents=0;fillColor=none;points=[[0,0.5],[1,0.5]];portConstraint=eastwest;top=0;left=0;right=0;bottom=0;" vertex="1" parent="kZIPnpXtTYGKchgnMpPG-62">
          <mxGeometry y="140" width="195" height="20" as="geometry" />
        </mxCell>
        <mxCell id="kZIPnpXtTYGKchgnMpPG-79" value="" style="shape=partialRectangle;overflow=hidden;connectable=0;fillColor=none;top=0;left=0;bottom=0;right=0;" vertex="1" parent="kZIPnpXtTYGKchgnMpPG-78">
          <mxGeometry width="30" height="20" as="geometry">
            <mxRectangle width="30" height="20" as="alternateBounds" />
          </mxGeometry>
        </mxCell>
        <mxCell id="kZIPnpXtTYGKchgnMpPG-80" value="security_code int" style="shape=partialRectangle;overflow=hidden;connectable=0;fillColor=none;top=0;left=0;bottom=0;right=0;align=left;spacingLeft=6;" vertex="1" parent="kZIPnpXtTYGKchgnMpPG-78">
          <mxGeometry x="30" width="165" height="20" as="geometry">
            <mxRectangle width="165" height="20" as="alternateBounds" />
          </mxGeometry>
        </mxCell>
        <mxCell id="kZIPnpXtTYGKchgnMpPG-81" value="" style="shape=partialRectangle;collapsible=0;dropTarget=0;pointerEvents=0;fillColor=none;points=[[0,0.5],[1,0.5]];portConstraint=eastwest;top=0;left=0;right=0;bottom=0;" vertex="1" parent="kZIPnpXtTYGKchgnMpPG-62">
          <mxGeometry y="160" width="195" height="20" as="geometry" />
        </mxCell>
        <mxCell id="kZIPnpXtTYGKchgnMpPG-82" value="" style="shape=partialRectangle;overflow=hidden;connectable=0;fillColor=none;top=0;left=0;bottom=0;right=0;" vertex="1" parent="kZIPnpXtTYGKchgnMpPG-81">
          <mxGeometry width="30" height="20" as="geometry">
            <mxRectangle width="30" height="20" as="alternateBounds" />
          </mxGeometry>
        </mxCell>
        <mxCell id="kZIPnpXtTYGKchgnMpPG-83" value="billing_address varchar(200)" style="shape=partialRectangle;overflow=hidden;connectable=0;fillColor=none;top=0;left=0;bottom=0;right=0;align=left;spacingLeft=6;" vertex="1" parent="kZIPnpXtTYGKchgnMpPG-81">
          <mxGeometry x="30" width="165" height="20" as="geometry">
            <mxRectangle width="165" height="20" as="alternateBounds" />
          </mxGeometry>
        </mxCell>
        <mxCell id="kZIPnpXtTYGKchgnMpPG-96" value="Incident" style="shape=table;startSize=30;container=1;collapsible=1;childLayout=tableLayout;fixedRows=1;rowLines=0;fontStyle=1;align=center;resizeLast=1;fillColor=#dae8fc;strokeColor=#6c8ebf;" vertex="1" parent="1">
          <mxGeometry x="-500" y="-1770" width="180" height="160" as="geometry" />
        </mxCell>
        <mxCell id="kZIPnpXtTYGKchgnMpPG-97" value="" style="shape=partialRectangle;collapsible=0;dropTarget=0;pointerEvents=0;fillColor=none;points=[[0,0.5],[1,0.5]];portConstraint=eastwest;top=0;left=0;right=0;bottom=1;" vertex="1" parent="kZIPnpXtTYGKchgnMpPG-96">
          <mxGeometry y="30" width="180" height="30" as="geometry" />
        </mxCell>
        <mxCell id="kZIPnpXtTYGKchgnMpPG-98" value="PK" style="shape=partialRectangle;overflow=hidden;connectable=0;fillColor=none;top=0;left=0;bottom=0;right=0;fontStyle=1;" vertex="1" parent="kZIPnpXtTYGKchgnMpPG-97">
          <mxGeometry width="30" height="30" as="geometry">
            <mxRectangle width="30" height="30" as="alternateBounds" />
          </mxGeometry>
        </mxCell>
        <mxCell id="kZIPnpXtTYGKchgnMpPG-99" value="incident_id int" style="shape=partialRectangle;overflow=hidden;connectable=0;fillColor=none;top=0;left=0;bottom=0;right=0;align=left;spacingLeft=6;fontStyle=5;" vertex="1" parent="kZIPnpXtTYGKchgnMpPG-97">
          <mxGeometry x="30" width="150" height="30" as="geometry">
            <mxRectangle width="150" height="30" as="alternateBounds" />
          </mxGeometry>
        </mxCell>
        <mxCell id="kZIPnpXtTYGKchgnMpPG-100" value="" style="shape=partialRectangle;collapsible=0;dropTarget=0;pointerEvents=0;fillColor=none;points=[[0,0.5],[1,0.5]];portConstraint=eastwest;top=0;left=0;right=0;bottom=0;" vertex="1" parent="kZIPnpXtTYGKchgnMpPG-96">
          <mxGeometry y="60" width="180" height="20" as="geometry" />
        </mxCell>
        <mxCell id="kZIPnpXtTYGKchgnMpPG-101" value="FK" style="shape=partialRectangle;overflow=hidden;connectable=0;fillColor=none;top=0;left=0;bottom=0;right=0;" vertex="1" parent="kZIPnpXtTYGKchgnMpPG-100">
          <mxGeometry width="30" height="20" as="geometry">
            <mxRectangle width="30" height="20" as="alternateBounds" />
          </mxGeometry>
        </mxCell>
        <mxCell id="kZIPnpXtTYGKchgnMpPG-102" value="reporter_id int" style="shape=partialRectangle;overflow=hidden;connectable=0;fillColor=none;top=0;left=0;bottom=0;right=0;align=left;spacingLeft=6;" vertex="1" parent="kZIPnpXtTYGKchgnMpPG-100">
          <mxGeometry x="30" width="150" height="20" as="geometry">
            <mxRectangle width="150" height="20" as="alternateBounds" />
          </mxGeometry>
        </mxCell>
        <mxCell id="kZIPnpXtTYGKchgnMpPG-103" value="" style="shape=partialRectangle;collapsible=0;dropTarget=0;pointerEvents=0;fillColor=none;points=[[0,0.5],[1,0.5]];portConstraint=eastwest;top=0;left=0;right=0;bottom=0;" vertex="1" parent="kZIPnpXtTYGKchgnMpPG-96">
          <mxGeometry y="80" width="180" height="20" as="geometry" />
        </mxCell>
        <mxCell id="kZIPnpXtTYGKchgnMpPG-104" value="" style="shape=partialRectangle;overflow=hidden;connectable=0;fillColor=none;top=0;left=0;bottom=0;right=0;" vertex="1" parent="kZIPnpXtTYGKchgnMpPG-103">
          <mxGeometry width="30" height="20" as="geometry">
            <mxRectangle width="30" height="20" as="alternateBounds" />
          </mxGeometry>
        </mxCell>
        <mxCell id="kZIPnpXtTYGKchgnMpPG-105" value="incident_date date" style="shape=partialRectangle;overflow=hidden;connectable=0;fillColor=none;top=0;left=0;bottom=0;right=0;align=left;spacingLeft=6;" vertex="1" parent="kZIPnpXtTYGKchgnMpPG-103">
          <mxGeometry x="30" width="150" height="20" as="geometry">
            <mxRectangle width="150" height="20" as="alternateBounds" />
          </mxGeometry>
        </mxCell>
        <mxCell id="kZIPnpXtTYGKchgnMpPG-106" value="" style="shape=partialRectangle;collapsible=0;dropTarget=0;pointerEvents=0;fillColor=none;points=[[0,0.5],[1,0.5]];portConstraint=eastwest;top=0;left=0;right=0;bottom=0;" vertex="1" parent="kZIPnpXtTYGKchgnMpPG-96">
          <mxGeometry y="100" width="180" height="20" as="geometry" />
        </mxCell>
        <mxCell id="kZIPnpXtTYGKchgnMpPG-107" value="" style="shape=partialRectangle;overflow=hidden;connectable=0;fillColor=none;top=0;left=0;bottom=0;right=0;" vertex="1" parent="kZIPnpXtTYGKchgnMpPG-106">
          <mxGeometry width="30" height="20" as="geometry">
            <mxRectangle width="30" height="20" as="alternateBounds" />
          </mxGeometry>
        </mxCell>
        <mxCell id="kZIPnpXtTYGKchgnMpPG-108" value="description varchar(200)" style="shape=partialRectangle;overflow=hidden;connectable=0;fillColor=none;top=0;left=0;bottom=0;right=0;align=left;spacingLeft=6;" vertex="1" parent="kZIPnpXtTYGKchgnMpPG-106">
          <mxGeometry x="30" width="150" height="20" as="geometry">
            <mxRectangle width="150" height="20" as="alternateBounds" />
          </mxGeometry>
        </mxCell>
        <mxCell id="kZIPnpXtTYGKchgnMpPG-109" value="" style="shape=partialRectangle;collapsible=0;dropTarget=0;pointerEvents=0;fillColor=none;points=[[0,0.5],[1,0.5]];portConstraint=eastwest;top=0;left=0;right=0;bottom=0;" vertex="1" parent="kZIPnpXtTYGKchgnMpPG-96">
          <mxGeometry y="120" width="180" height="20" as="geometry" />
        </mxCell>
        <mxCell id="kZIPnpXtTYGKchgnMpPG-110" value="" style="shape=partialRectangle;overflow=hidden;connectable=0;fillColor=none;top=0;left=0;bottom=0;right=0;" vertex="1" parent="kZIPnpXtTYGKchgnMpPG-109">
          <mxGeometry width="30" height="20" as="geometry">
            <mxRectangle width="30" height="20" as="alternateBounds" />
          </mxGeometry>
        </mxCell>
        <mxCell id="kZIPnpXtTYGKchgnMpPG-111" value="status varchar(200)" style="shape=partialRectangle;overflow=hidden;connectable=0;fillColor=none;top=0;left=0;bottom=0;right=0;align=left;spacingLeft=6;" vertex="1" parent="kZIPnpXtTYGKchgnMpPG-109">
          <mxGeometry x="30" width="150" height="20" as="geometry">
            <mxRectangle width="150" height="20" as="alternateBounds" />
          </mxGeometry>
        </mxCell>
        <mxCell id="kZIPnpXtTYGKchgnMpPG-112" value="" style="shape=partialRectangle;collapsible=0;dropTarget=0;pointerEvents=0;fillColor=none;points=[[0,0.5],[1,0.5]];portConstraint=eastwest;top=0;left=0;right=0;bottom=0;" vertex="1" parent="kZIPnpXtTYGKchgnMpPG-96">
          <mxGeometry y="140" width="180" height="20" as="geometry" />
        </mxCell>
        <mxCell id="kZIPnpXtTYGKchgnMpPG-113" value="" style="shape=partialRectangle;overflow=hidden;connectable=0;fillColor=none;top=0;left=0;bottom=0;right=0;" vertex="1" parent="kZIPnpXtTYGKchgnMpPG-112">
          <mxGeometry width="30" height="20" as="geometry">
            <mxRectangle width="30" height="20" as="alternateBounds" />
          </mxGeometry>
        </mxCell>
        <mxCell id="kZIPnpXtTYGKchgnMpPG-114" value="incident_type varchar(10)" style="shape=partialRectangle;overflow=hidden;connectable=0;fillColor=none;top=0;left=0;bottom=0;right=0;align=left;spacingLeft=6;" vertex="1" parent="kZIPnpXtTYGKchgnMpPG-112">
          <mxGeometry x="30" width="150" height="20" as="geometry">
            <mxRectangle width="150" height="20" as="alternateBounds" />
          </mxGeometry>
        </mxCell>
        <mxCell id="kZIPnpXtTYGKchgnMpPG-119" value="" style="endArrow=block;html=1;endFill=0;edgeStyle=elbowEdgeStyle;elbow=vertical;rounded=0;exitX=0.487;exitY=0.997;exitDx=0;exitDy=0;exitPerimeter=0;" edge="1" parent="1" source="kZIPnpXtTYGKchgnMpPG-21">
          <mxGeometry width="160" relative="1" as="geometry">
            <mxPoint x="-1300" y="-2110" as="sourcePoint" />
            <mxPoint x="-1013" y="-1950" as="targetPoint" />
          </mxGeometry>
        </mxCell>
        <mxCell id="kZIPnpXtTYGKchgnMpPG-121" value="" style="endArrow=none;html=1;rounded=0;exitX=0.461;exitY=-0.037;exitDx=0;exitDy=0;exitPerimeter=0;" edge="1" parent="1" source="C-vyLk0tnHw3VtMMgP7b-23">
          <mxGeometry width="50" height="50" relative="1" as="geometry">
            <mxPoint x="-1260" y="-1980" as="sourcePoint" />
            <mxPoint x="-1010" y="-1950" as="targetPoint" />
            <Array as="points">
              <mxPoint x="-1242" y="-1950" />
            </Array>
          </mxGeometry>
        </mxCell>
        <mxCell id="kZIPnpXtTYGKchgnMpPG-122" value="" style="endArrow=none;html=1;rounded=0;exitX=0.5;exitY=0;exitDx=0;exitDy=0;" edge="1" parent="1" source="C-vyLk0tnHw3VtMMgP7b-2">
          <mxGeometry width="50" height="50" relative="1" as="geometry">
            <mxPoint x="-710" y="-1950" as="sourcePoint" />
            <mxPoint x="-1010" y="-1950" as="targetPoint" />
            <Array as="points">
              <mxPoint x="-640" y="-1950" />
            </Array>
          </mxGeometry>
        </mxCell>
        <mxCell id="kZIPnpXtTYGKchgnMpPG-123" value="" style="endArrow=none;html=1;rounded=0;entryX=0.5;entryY=0;entryDx=0;entryDy=0;" edge="1" parent="1" target="kZIPnpXtTYGKchgnMpPG-52">
          <mxGeometry width="50" height="50" relative="1" as="geometry">
            <mxPoint x="-700" y="-1950" as="sourcePoint" />
            <mxPoint x="-570" y="-1990" as="targetPoint" />
            <Array as="points">
              <mxPoint x="-410" y="-1950" />
            </Array>
          </mxGeometry>
        </mxCell>
        <mxCell id="kZIPnpXtTYGKchgnMpPG-124" value="" style="endArrow=ERmandOne;html=1;rounded=0;startArrow=ERoneToMany;startFill=0;endFill=0;entryX=1;entryY=0.5;entryDx=0;entryDy=0;exitX=0;exitY=0.5;exitDx=0;exitDy=0;" edge="1" parent="1" source="kZIPnpXtTYGKchgnMpPG-28" target="kZIPnpXtTYGKchgnMpPG-2">
          <mxGeometry width="50" height="50" relative="1" as="geometry">
            <mxPoint x="-1220" y="-2100" as="sourcePoint" />
            <mxPoint x="-1170" y="-2150" as="targetPoint" />
            <Array as="points">
              <mxPoint x="-880" y="-2090" />
              <mxPoint x="-880" y="-2115" />
            </Array>
          </mxGeometry>
        </mxCell>
        <mxCell id="kZIPnpXtTYGKchgnMpPG-125" value="" style="endArrow=ERmandOne;html=1;rounded=0;startArrow=ERoneToMany;startFill=0;endFill=0;entryX=0;entryY=0.5;entryDx=0;entryDy=0;exitX=0;exitY=0.5;exitDx=0;exitDy=0;" edge="1" parent="1" source="kZIPnpXtTYGKchgnMpPG-66" target="kZIPnpXtTYGKchgnMpPG-2">
          <mxGeometry width="50" height="50" relative="1" as="geometry">
            <mxPoint x="-1200" y="-2105" as="sourcePoint" />
            <mxPoint x="-1280" y="-2130" as="targetPoint" />
            <Array as="points">
              <mxPoint x="-1370" y="-1500" />
              <mxPoint x="-1370" y="-2115" />
            </Array>
          </mxGeometry>
        </mxCell>
        <mxCell id="kZIPnpXtTYGKchgnMpPG-128" value="" style="endArrow=ERmandOne;html=1;rounded=0;startArrow=ERoneToMany;startFill=0;endFill=0;entryX=0;entryY=0.5;entryDx=0;entryDy=0;exitX=0;exitY=0.5;exitDx=0;exitDy=0;" edge="1" parent="1" source="X0QKfnbGEKnTVk9c6X8E-72" target="C-vyLk0tnHw3VtMMgP7b-24">
          <mxGeometry width="50" height="50" relative="1" as="geometry">
            <mxPoint x="-1190" y="-2025" as="sourcePoint" />
            <mxPoint x="-1270" y="-2050" as="targetPoint" />
            <Array as="points">
              <mxPoint x="-750" y="-1670" />
              <mxPoint x="-750" y="-1230" />
              <mxPoint x="-1430" y="-1230" />
              <mxPoint x="-1430" y="-1865" />
            </Array>
          </mxGeometry>
        </mxCell>
        <mxCell id="kZIPnpXtTYGKchgnMpPG-129" value="" style="endArrow=ERmandOne;html=1;rounded=0;startArrow=ERoneToMany;startFill=0;endFill=0;entryX=0;entryY=0.5;entryDx=0;entryDy=0;exitX=1;exitY=0.5;exitDx=0;exitDy=0;" edge="1" parent="1" source="X0QKfnbGEKnTVk9c6X8E-128" target="C-vyLk0tnHw3VtMMgP7b-3">
          <mxGeometry width="50" height="50" relative="1" as="geometry">
            <mxPoint x="-620" y="-1715" as="sourcePoint" />
            <mxPoint x="-700" y="-1740" as="targetPoint" />
            <Array as="points">
              <mxPoint x="-780" y="-1740" />
              <mxPoint x="-780" y="-1865" />
            </Array>
          </mxGeometry>
        </mxCell>
        <mxCell id="kZIPnpXtTYGKchgnMpPG-130" value="" style="endArrow=ERmandOne;html=1;rounded=0;startArrow=ERmany;startFill=0;endFill=0;entryX=0;entryY=0.5;entryDx=0;entryDy=0;exitX=0;exitY=0.5;exitDx=0;exitDy=0;" edge="1" parent="1" source="X0QKfnbGEKnTVk9c6X8E-56" target="C-vyLk0tnHw3VtMMgP7b-24">
          <mxGeometry width="50" height="50" relative="1" as="geometry">
            <mxPoint x="-1260" y="-1775" as="sourcePoint" />
            <mxPoint x="-1340" y="-1800" as="targetPoint" />
            <Array as="points">
              <mxPoint x="-1350" y="-1690" />
              <mxPoint x="-1350" y="-1865" />
            </Array>
          </mxGeometry>
        </mxCell>
        <mxCell id="kZIPnpXtTYGKchgnMpPG-131" value="" style="endArrow=ERmandOne;html=1;rounded=0;startArrow=ERmany;startFill=0;endFill=0;entryX=0;entryY=0.5;entryDx=0;entryDy=0;exitX=1;exitY=0.5;exitDx=0;exitDy=0;" edge="1" parent="1" source="X0QKfnbGEKnTVk9c6X8E-59" target="C-vyLk0tnHw3VtMMgP7b-14">
          <mxGeometry width="50" height="50" relative="1" as="geometry">
            <mxPoint x="-1110" y="-1670" as="sourcePoint" />
            <mxPoint x="-1110" y="-1845" as="targetPoint" />
            <Array as="points">
              <mxPoint x="-1080" y="-1670" />
              <mxPoint x="-1080" y="-1865" />
            </Array>
          </mxGeometry>
        </mxCell>
        <mxCell id="kZIPnpXtTYGKchgnMpPG-132" value="" style="endArrow=ERmandOne;html=1;rounded=0;startArrow=ERone;startFill=0;endFill=0;exitX=0;exitY=0.5;exitDx=0;exitDy=0;entryX=1;entryY=0.5;entryDx=0;entryDy=0;" edge="1" parent="1" source="X0QKfnbGEKnTVk9c6X8E-78" target="C-vyLk0tnHw3VtMMgP7b-14">
          <mxGeometry width="50" height="50" relative="1" as="geometry">
            <mxPoint x="-530" y="-1517.5" as="sourcePoint" />
            <mxPoint x="-480" y="-1782.5000000000002" as="targetPoint" />
            <Array as="points">
              <mxPoint x="-790" y="-1630" />
              <mxPoint x="-790" y="-1865" />
            </Array>
          </mxGeometry>
        </mxCell>
        <mxCell id="kZIPnpXtTYGKchgnMpPG-133" value="" style="endArrow=ERmandOne;html=1;rounded=0;startArrow=ERmany;startFill=0;endFill=0;exitX=0;exitY=0.5;exitDx=0;exitDy=0;entryX=0;entryY=0.5;entryDx=0;entryDy=0;" edge="1" parent="1" source="X0QKfnbGEKnTVk9c6X8E-97" target="C-vyLk0tnHw3VtMMgP7b-14">
          <mxGeometry width="50" height="50" relative="1" as="geometry">
            <mxPoint x="-1155" y="-1580" as="sourcePoint" />
            <mxPoint x="-1105" y="-1845" as="targetPoint" />
            <Array as="points">
              <mxPoint x="-1090" y="-1580" />
              <mxPoint x="-1090" y="-1865" />
            </Array>
          </mxGeometry>
        </mxCell>
        <mxCell id="kZIPnpXtTYGKchgnMpPG-134" value="" style="endArrow=ERmandOne;html=1;rounded=0;startArrow=ERmany;startFill=0;endFill=0;exitX=0;exitY=0.5;exitDx=0;exitDy=0;entryX=1;entryY=0.5;entryDx=0;entryDy=0;" edge="1" parent="1" source="kZIPnpXtTYGKchgnMpPG-84" target="C-vyLk0tnHw3VtMMgP7b-24">
          <mxGeometry width="50" height="50" relative="1" as="geometry">
            <mxPoint x="-1100" y="-1545" as="sourcePoint" />
            <mxPoint x="-1090" y="-1830" as="targetPoint" />
            <Array as="points">
              <mxPoint x="-1120" y="-1560" />
              <mxPoint x="-1120" y="-1865" />
            </Array>
          </mxGeometry>
        </mxCell>
        <mxCell id="kZIPnpXtTYGKchgnMpPG-135" value="" style="endArrow=ERmandOne;html=1;rounded=0;startArrow=ERoneToMany;startFill=0;endFill=0;entryX=1;entryY=0.5;entryDx=0;entryDy=0;exitX=1;exitY=0.5;exitDx=0;exitDy=0;" edge="1" parent="1" source="X0QKfnbGEKnTVk9c6X8E-75" target="C-vyLk0tnHw3VtMMgP7b-3">
          <mxGeometry width="50" height="50" relative="1" as="geometry">
            <mxPoint x="-550" y="-1647.5" as="sourcePoint" />
            <mxPoint x="-470" y="-1772.5" as="targetPoint" />
            <Array as="points">
              <mxPoint x="-530" y="-1650" />
              <mxPoint x="-530" y="-1865" />
            </Array>
          </mxGeometry>
        </mxCell>
        <mxCell id="kZIPnpXtTYGKchgnMpPG-136" value="" style="endArrow=ERmandOne;html=1;rounded=0;startArrow=ERoneToMany;startFill=0;endFill=0;exitX=0;exitY=0.5;exitDx=0;exitDy=0;entryX=1;entryY=0.5;entryDx=0;entryDy=0;" edge="1" parent="1" source="X0QKfnbGEKnTVk9c6X8E-37" target="C-vyLk0tnHw3VtMMgP7b-24">
          <mxGeometry width="50" height="50" relative="1" as="geometry">
            <mxPoint x="-1180" y="-1297.5" as="sourcePoint" />
            <mxPoint x="-1150" y="-1780" as="targetPoint" />
            <Array as="points">
              <mxPoint x="-1120" y="-1370" />
              <mxPoint x="-1120" y="-1865" />
            </Array>
          </mxGeometry>
        </mxCell>
        <mxCell id="kZIPnpXtTYGKchgnMpPG-137" value="" style="endArrow=ERmandOne;html=1;rounded=0;startArrow=ERoneToMany;startFill=0;endFill=0;entryX=0;entryY=0.5;entryDx=0;entryDy=0;exitX=1;exitY=0.5;exitDx=0;exitDy=0;" edge="1" parent="1" source="X0QKfnbGEKnTVk9c6X8E-40" target="C-vyLk0tnHw3VtMMgP7b-3">
          <mxGeometry width="50" height="50" relative="1" as="geometry">
            <mxPoint x="-780" y="-1355" as="sourcePoint" />
            <mxPoint x="-780" y="-1570" as="targetPoint" />
            <Array as="points">
              <mxPoint x="-760" y="-1350" />
              <mxPoint x="-760" y="-1865" />
            </Array>
          </mxGeometry>
        </mxCell>
        <mxCell id="kZIPnpXtTYGKchgnMpPG-138" value="" style="endArrow=ERmandOne;html=1;rounded=0;startArrow=ERoneToMany;startFill=0;endFill=0;entryX=0;entryY=0.5;entryDx=0;entryDy=0;exitX=0;exitY=0.5;exitDx=0;exitDy=0;" edge="1" parent="1" source="X0QKfnbGEKnTVk9c6X8E-43" target="C-vyLk0tnHw3VtMMgP7b-14">
          <mxGeometry width="50" height="50" relative="1" as="geometry">
            <mxPoint x="-1155" y="-1390" as="sourcePoint" />
            <mxPoint x="-1155" y="-1605" as="targetPoint" />
            <Array as="points">
              <mxPoint x="-1100" y="-1330" />
              <mxPoint x="-1100" y="-1865" />
            </Array>
          </mxGeometry>
        </mxCell>
        <mxCell id="kZIPnpXtTYGKchgnMpPG-139" value="" style="endArrow=ERmandOne;html=1;rounded=0;startArrow=ERoneToMany;startFill=0;endFill=0;entryX=1;entryY=0.5;entryDx=0;entryDy=0;exitX=1;exitY=0.5;exitDx=0;exitDy=0;" edge="1" parent="1" source="kZIPnpXtTYGKchgnMpPG-100" target="kZIPnpXtTYGKchgnMpPG-53">
          <mxGeometry width="50" height="50" relative="1" as="geometry">
            <mxPoint x="-230" y="-1655" as="sourcePoint" />
            <mxPoint x="-230" y="-1870" as="targetPoint" />
            <Array as="points">
              <mxPoint x="-290" y="-1700" />
              <mxPoint x="-290" y="-1865" />
            </Array>
          </mxGeometry>
        </mxCell>
        <mxCell id="kZIPnpXtTYGKchgnMpPG-140" value="" style="endArrow=ERmandOne;html=1;rounded=0;startArrow=ERmany;startFill=0;endFill=0;entryX=0;entryY=0.5;entryDx=0;entryDy=0;exitX=1;exitY=0.5;exitDx=0;exitDy=0;" edge="1" parent="1" source="X0QKfnbGEKnTVk9c6X8E-94" target="C-vyLk0tnHw3VtMMgP7b-3">
          <mxGeometry width="50" height="50" relative="1" as="geometry">
            <mxPoint x="-800" y="-1595" as="sourcePoint" />
            <mxPoint x="-800" y="-1760" as="targetPoint" />
            <Array as="points">
              <mxPoint x="-770" y="-1600" />
              <mxPoint x="-770" y="-1865" />
            </Array>
          </mxGeometry>
        </mxCell>
      </root>
    </mxGraphModel>
  </diagram>
</mxfile>
